<?xml version="1.0" encoding="utf-8"?>
<!-- Svg Vector Icons : http://www.onlinewebfonts.com/icon -->
<!DOCTYPE svg PUBLIC "-//W3C//DTD SVG 1.1//EN" "http://www.w3.org/Graphics/SVG/1.1/DTD/svg11.dtd">
<svg version="1.1" xmlns="http://www.w3.org/2000/svg" xmlns:xlink="http://www.w3.org/1999/xlink" x="0px" y="0px" viewBox="0 0 1000 1000" enable-background="new 0 0 1000 1000" xml:space="preserve">
<metadata> Svg Vector Icons : http://www.onlinewebfonts.com/icon </metadata>
<g><g><g><g><path d="M422.4,418.3c0-37.5-25.5-37.5-25.5-37.5h-13.5h-91.5h0v80.5h98.5C407.4,461.3,422.4,455.8,422.4,418.3z"/><path d="M665.7,461.3c-55.7,0-63.5,55.5-63.5,55.5h118.5C720.7,516.8,721.4,461.3,665.7,461.3z"/><path d="M396.9,516.8h-105v96.5h93c1.6,0,3.9,0.1,6.7,0c14.9-0.4,43.3-4.6,43.3-46.9C434.9,516.4,396.9,516.8,396.9,516.8z"/><path d="M500,10C229.8,10,10,229.8,10,500c0,270.2,219.8,490,490,490c270.2,0,490-219.8,490-490C990,229.8,770.2,10,500,10z M586.7,337.9h148.8v44.4H586.7V337.9z M511.5,570.9c0,110.1-114.6,106.5-114.6,106.5h-105h-3.1h-79.6V316.7h79.6h3.1h105c57.1,0,102.1,31.5,102.1,96.1c0,64.5-55,68.6-55,68.6C516.5,481.4,511.5,570.9,511.5,570.9z M789.9,565H602.9c0,67,63.5,62.8,63.5,62.8c59.9,0,57.8-38.8,57.8-38.8h63.5c0,103-123.5,95.9-123.5,95.9C516.3,684.9,525.8,547,525.8,547s-0.1-138.6,138.6-138.6C810.3,408.4,789.8,565,789.9,565z"/></g></g></g><g></g><g></g><g></g><g></g><g></g><g></g><g></g><g></g><g></g><g></g><g></g><g></g><g></g><g></g><g></g></g>
</svg>