<?xml version="1.0" encoding="utf-8"?>
<!-- Generator: Adobe Illustrator 16.0.0, SVG Export Plug-In . SVG Version: 6.00 Build 0)  -->
<!DOCTYPE svg PUBLIC "-//W3C//DTD SVG 1.1//EN" "http://www.w3.org/Graphics/SVG/1.1/DTD/svg11.dtd">
<svg version="1.1" id="Layer_1" xmlns="http://www.w3.org/2000/svg" xmlns:xlink="http://www.w3.org/1999/xlink" x="0px" y="0px"
	 width="548.973px" height="550.473px" viewBox="0 0 548.973 550.473" enable-background="new 0 0 548.973 550.473"
	 xml:space="preserve">
<circle fill="#FFFFFF" stroke="#000000" stroke-miterlimit="10" cx="274.487" cy="275.236" r="259.198"/>
<path fill="#973620" d="M275.219,275.494"/>
<path fill="#010101" d="M267.99,201.91c0,0-0.302,0.862,1.769,1.004c0,0,2.53,0.304,4.029-0.162c0,0,0.499-0.218,0.213-0.539
	c0,0-1.164-0.433-2.5-0.117C270.531,202.319,268.768,201.438,267.99,201.91"/>
<g>
	<path fill="#010101" d="M267.846,191.295c0.042-0.156,0.021-0.524-0.264-0.775c-0.265-0.238-0.685-0.76-2.602,0.804
		c0,0-0.204,0.331,0.185,0.764c0.475,0.533,0.568,0.607,1.152,0.896c1.151,0.559,2.1,0.315,2.125,0.151
		c0.029-0.158,0.058-0.667-0.142-0.873c-0.167-0.164-0.986-0.473-1.195-0.517c-0.273-0.042-0.095-0.204,0.012-0.206
		C267.116,191.541,267.792,191.502,267.846,191.295z"/>
	<path fill="#010101" d="M274.076,191.479c0.268-0.091,1.332-0.417,1.35-1.066c0,0-0.076-0.16-0.365-0.107
		c-0.28,0.053-1.084-0.333-1.609-0.1c0,0-0.838,0.291-1.14,0.969c-0.051,0.078-0.097,0.27,0.063,0.271
		C272.374,191.446,273.156,191.773,274.076,191.479z"/>
	<path fill="#010101" d="M300.93,198.979c-0.72,0.107-3.15-0.22-3.041-2.454c0,0,0.156-1.514-0.761-0.562
		c-0.913,0.948-0.597,6.803-0.597,7.435c0.008,0.631,0.61,1.939,1.503,0.393c0.905-1.555,1.706-2.079,2.259-2.963
		C300.824,199.945,301.646,198.879,300.93,198.979z"/>
	<path fill="#010101" d="M281.105,182.767c2.894,0.022,2.842-0.766,2.842-0.766c-0.355,0.258-1.722-0.733-3.146-0.575
		c-1.55,0.171-2.947-0.373-2.947-0.373C279.235,182.632,281.105,182.767,281.105,182.767z"/>
	<path fill="#010101" d="M260.28,183.098c-1.747,0.175-2.045,0.778-2.045,0.778c0.26-0.164,1.732,0.202,1.732,0.202
		c1.454,0.255,2.496-0.695,2.645-0.9c0.166-0.204,0.448-0.278,0.448-0.278c-0.077-0.733-1.314-1.197-1.314-1.197
		c-0.617-0.276-1.176,0.275-1.176,0.275c-0.302,0.286-1.184-0.038-1.184-0.038c0.127,0.898,0.479,0.726,0.479,0.726
		c0.446-0.307,1.109,0.029,1.109,0.029C260.952,183.164,260.28,183.098,260.28,183.098z"/>
	<path fill="#010101" d="M308.96,151.888c0,0-3.776-8.173-9.277-5.739c-1.452,0.639-4.101-6.458-5.979-4.906
		c-1.882,1.563,0.243-11.4-26.478-8.544c0,0-10.969,1.614-21.853,13.973c0,0-7.671,9.792-7.442,15.85c0,0,0.025,0.856,1.537,0.704
		c0,0-2.809,5.312-0.649,9.01c2.156,3.691,0.46,3.638,0.183,5.929c-0.271,2.29,1.461,4.342,1.82,6.59
		c0.333,2.249,0.373,6.44,1.44,4.972c0.857-1.137,0.291,1.435,0.88,1.73c0.606,0.278,0.757-0.842,0.888-1.564
		c0.16-0.715,2.159-0.08,4.447,2.354c0,0,1.463,1.319,0.609-1.146c-0.842-2.454-3.825-3.018-3.882-4.217
		c-0.067-1.204,0.277-1.646,1.322-0.931c1.068,0.722,0.413,0.788,0.107,1.328c-0.291,0.541,0.462,0.81,1.273-0.058
		c0.781-0.88-0.476-7.715-0.522-9.869c-0.058-2.159,0.04-3.196,2.227-2.769c1.172,0.227,1.131,1.157,1.18,1.861
		c0.004,0.186,0.033,1.302,0.418,1.273c0,0,0.557-0.127,0.846,2.079c0.272,2.199,2.674,0.14,3.333-0.083
		c0.646-0.229,2.383,0.688,5.004,0.471c0,0,2.837-0.066,3.44-1.137c0.438-0.764,0.2-1.48,0.169-1.783
		c-0.023-0.234,1.97,0,2.727,0.617c0.151,0.822,0.229,1.765,0.021,2.545c-0.504,1.783,0.142,0.908,0.142,0.908
		c4.954-5.552-0.087-12.125-0.087-12.125c-0.003-0.038-0.023-0.093-0.073-0.124c0.049-0.291,0.231-0.527,0.673-0.6
		c1.25-0.189,2.15-1.265,1.961-3.393c-0.213-2.132,1.556-5.5,2.006-5.563c0.462-0.064,0.054,2.385,0.929,3.915
		c0,0,2.327,3.675,1.412,6.587c0,0-1.295,5.092-0.938,6.285c0,0,0.868,2.754,1.981,0.908c0.116-0.191,0.435-0.627,0.831-1.122
		c0.006,0.118-0.002,0.207,0.019,0.364c0.192,1.268,0.924,1.004,0.771,1.879c-0.151,0.879,0.135,1.368,0.733,1.068
		c0.582-0.296,1.07-1.681,1.979-2.012c0.924-0.328,0.888,0.082,0.65,0.627c-0.229,0.553,0.311,1.231-0.45,1.352
		c-0.735,0.125-1.551-0.218-1.077,0.209c0.466,0.433,0.526,1.05,4.652,0.202c0,0,5.597-0.892,7.356,0.115
		c0,0,1.069-0.31,1.237-1.092c0.138-0.395-0.069-1.206-0.069-1.206c-2.602-3.774-6.13-4.271-6.909-4.335
		c0.299-0.717,0.408-2.192-0.247-3.003c0,0-1.415-1.479,1.304-0.793c0,0,1.139,0.497,1.062-1.119c0,0,4.6-1.87,8.223,2.961
		c0,0,1.313,0.799-0.864,8.667c-1.376,4.875,0.374,8.586,1.601,6.196c0,0,1.259-0.284,2.332-1.821
		c1.088-1.541,1.564,0.952,0.972,1.332c-0.604,0.378,2.519-1.528,3.281,0.724c0,0,0.007,1.577,0.502,1.341
		c0.518-0.242,1.463-1.419,0.735-2.84c-0.706-1.418-2.165-1.195-0.893-3.187c0.866-1.35-0.272-1.182-0.104-2.565
		c0,0-0.48-2.654,3.238-1.976c0,0,2.295-1.344,1.542,0.799c-0.731,2.137-1.595-0.832-3.181,0.895
		c-1.563,1.712,0.422,2.561,0.993,3.072c0.562,0.519-0.069,2.612-0.171,3.229c-0.091,0.621,0.116,0.74,0.335,0.733
		c0,0,1.586-0.668,2.081-5.197c0.502-4.537,2.845-4.932,3.105-7.035C310.593,171.6,317.091,168.889,308.96,151.888z M257.924,178.56
		c-0.304,0.595-0.578,0.491-0.975,0.306c-0.381-0.195-0.544-0.631-0.894-0.486c0,0-0.294,0.045-0.382,0.149
		c0,0-0.424-0.666,0.26-1.282c0,0,0.218-0.289,0.484-0.511c0,0,0.469-0.458,1.513-0.002
		C257.932,176.733,258.234,177.966,257.924,178.56z M285.173,177.896c0.399-0.553-0.08-1.773-0.08-1.773
		c0.102-0.042,1.288,0.402,1.775,0.878c0.506,0.475,0.892,1.209,0.892,1.209c-0.575,0.569-2.718,0.311-2.718,0.311
		C284.806,178.247,285.173,177.896,285.173,177.896z"/>
	<path fill="#010101" d="M258.03,195.623c-0.161,0.228-0.397,0.389-0.559,1.148c-0.155,0.702-0.137,1.231,0.504,1.905
		c0.643,0.68,2.092,1.106,3.254,0.964c1.231-0.16,3.589,0.813,3.589,0.813c1.667,0.395,1.191-1.044,0.91-1.41
		c-0.493-0.633-1.481-0.029-1.584-0.373c-0.274-0.968,0.204-0.875,0.204-0.875c1.479,0.12,2.005,0.555,2.005,0.555
		c0.725,0.44,1.282,0.287,2.017,0.209c0.616-0.063,1.348-0.702,3.309,0.005c1.428,0.51,2.716,0.435,2.876,0.08
		c0,0,0-0.011,0.006-0.02c0.396-0.204,0.72-0.198,1.097-0.076l-0.039-0.015c0.426,0.093,0.941,0.318,0.821,0.819
		c0,0-0.064,0.289-0.346,0.524c0.213,0.073,0.444,0.098,0.685,0.031c1.056-0.298,2.926-1.264,4.257-0.731
		c1.367,0.531,1.252,0.542,2.357-0.813c1.099-1.344,0.262-2.07-0.837-2.245c-1.121-0.177-1.063,0.378-1.819,0.979
		c-0.746,0.597-3.033,0.254-4.181,0.085c-0.135-0.018-0.272-0.027-0.414-0.049c-1.408-0.294-2.25-0.769-2.25-0.769
		c-2.048-0.713-3.854-0.077-3.854-0.077c-1.927-1.046-4.889,0.022-4.889,0.022c-1.092,0.302-1.299,0.52-1.477,0.618
		c-0.41,0.044-0.964,0.117-1.734,0.275c-0.92,0.175-1.073-0.559-1.455-1.053c-0.544-0.695-1.104-0.81-1.104-0.81
		C258.467,194.982,258.234,195.301,258.03,195.623z"/>
	<path fill="#010101" d="M291.485,218.09c0.16,1.592-3.859,4.586-6.182,4.583c-2.284,0.007,1.572-3.443,3.867-5.417
		c2.304-1.977,1.647-3.445,0.906-2.845c-0.742,0.604-2.352-1.721-2.352-1.721c-2.954-4.982-10.922,1.546-12.27,3.918
		c-1.084,1.903-6.268,3.12-7.733,2.329c-1.663-0.874-4.257,0.227-4.257,0.227c-3.62,1.504-6.902-1.803-7.953-3.351
		c-1.088-1.555-2.397-1.506-2.397-1.506c-1.396-0.364-0.236,2.161-0.236,2.161c0.601,0.457,3.717,13.704,5.081,16.538
		c1.342,2.836,1.645,5.81,1.645,5.81c0.392,6.887,3.298,6.48,3.298,6.48c1.463,0.193-0.113-6.287-1.584-11.435
		c2.028,5.261,4.854,10.711,4.854,10.711c16.337,0.208,22.06-14.326,23.926-17.891c1.896-3.567,5.596-8.939,4.322-11.029
		C293.119,213.577,291.296,216.22,291.485,218.09z"/>
</g>
<path fill="none" d="M438.35,275.493c0,90.094-73.03,163.135-163.123,163.135c-90.099,0-163.134-73.041-163.134-163.135
	c0-90.095,73.036-163.136,163.134-163.136C365.319,112.357,438.35,185.398,438.35,275.493z"/>
<path fill="none" d="M178.166,404.436c-71.214-53.608-85.481-154.796-31.882-226.005c53.606-71.208,154.78-85.48,225.994-31.882
	c71.215,53.6,85.483,154.788,31.886,226.002C350.552,443.765,249.377,458.037,178.166,404.436z"/>
<text transform="matrix(0.6677 -0.7444 0.7444 0.6677 151.01 172.2529)" fill="#010101" font-family="'GillSansMTPro-BoldCondensed'" font-size="20.3686">H</text>
<text transform="matrix(0.6677 -0.7444 0.7444 0.6677 162.0071 160.2715)" fill="#010101" font-family="'GillSansMTPro-BoldCondensed'" font-size="20.3686">O</text>
<text transform="matrix(0.6677 -0.7444 0.7444 0.6677 174.1965 149.4795)" fill="#010101" font-family="'GillSansMTPro-BoldCondensed'" font-size="20.3686">T</text>
<text transform="matrix(0.6677 -0.7444 0.7444 0.6677 185.5012 141.2432)" fill="#010101" font-family="'GillSansMTPro-BoldCondensed'" font-size="20.3686"> </text>
<text transform="matrix(0.6677 -0.7444 0.7444 0.6677 194.4895 135.6016)" fill="#010101" font-family="'GillSansMTPro-BoldCondensed'" font-size="20.3686">E</text>
<text transform="matrix(0.6677 -0.7444 0.7444 0.6677 207.0344 129.0801)" fill="#010101" font-family="'GillSansMTPro-BoldCondensed'" font-size="20.3686">A</text>
<text transform="matrix(0.6677 -0.7444 0.7444 0.6677 220.5442 123.543)" fill="#010101" font-family="'GillSansMTPro-BoldCondensed'" font-size="20.3686">T</text>
<text transform="matrix(0.6677 -0.7444 0.7444 0.6677 233.9045 119.4092)" fill="#010101" font-family="'GillSansMTPro-BoldCondensed'" font-size="20.3686">S</text>
<text transform="matrix(0.6677 -0.7444 0.7444 0.6677 246.5725 116.6436)" fill="#010101" font-family="'GillSansMTPro-BoldCondensed'" font-size="20.3686">,</text>
<text transform="matrix(0.6677 -0.7444 0.7444 0.6677 255.8489 115.2354)" fill="#010101" font-family="'GillSansMTPro-BoldCondensed'" font-size="20.3686"> </text>
<text transform="matrix(0.6677 -0.7444 0.7444 0.6677 266.3928 114.2559)" fill="#010101" font-family="'GillSansMTPro-BoldCondensed'" font-size="20.3686">C</text>
<text transform="matrix(0.6677 -0.7444 0.7444 0.6677 280.7561 114.0645)" fill="#010101" font-family="'GillSansMTPro-BoldCondensed'" font-size="20.3686">O</text>
<text transform="matrix(0.6677 -0.7444 0.7444 0.6677 296.968 115.4258)" fill="#010101" font-family="'GillSansMTPro-BoldCondensed'" font-size="20.3686">O</text>
<text transform="matrix(0.6677 -0.7444 0.7444 0.6677 312.9622 118.4629)" fill="#010101" font-family="'GillSansMTPro-BoldCondensed'" font-size="20.3686">L</text>
<text transform="matrix(0.6677 -0.7444 0.7444 0.6677 326.0227 122.2266)" fill="#010101" font-family="'GillSansMTPro-BoldCondensed'" font-size="20.3686"> </text>
<text transform="matrix(0.6677 -0.7444 0.7444 0.6677 335.9583 125.8418)" fill="#010101" font-family="'GillSansMTPro-BoldCondensed'" font-size="20.3686">T</text>
<text transform="matrix(0.6677 -0.7444 0.7444 0.6677 348.6663 131.6475)" fill="#010101" font-family="'GillSansMTPro-BoldCondensed'" font-size="20.3686">R</text>
<text transform="matrix(0.6677 -0.7444 0.7444 0.6677 361.7014 139.126)" fill="#010101" font-family="'GillSansMTPro-BoldCondensed'" font-size="20.3686">E</text>
<text transform="matrix(0.6677 -0.7444 0.7444 0.6677 373.301 147.2188)" fill="#010101" font-family="'GillSansMTPro-BoldCondensed'" font-size="20.3686">A</text>
<text transform="matrix(0.6677 -0.7444 0.7444 0.6677 384.5012 156.6104)" fill="#010101" font-family="'GillSansMTPro-BoldCondensed'" font-size="20.3686">T</text>
<text transform="matrix(0.6677 -0.7444 0.7444 0.6677 394.3547 166.4863)" fill="#010101" font-family="'GillSansMTPro-BoldCondensed'" font-size="20.3686">S</text>
<path d="M78.731,338.101c27.618,82.807,105.701,142.521,197.79,142.521c92.076,0,170.159-59.714,197.773-142.521H78.731z
	 M106.262,365.332c-0.269,0.16-0.589,0.244-0.91,0.244c-0.744,0.007-1.41-0.4-1.768-1.084c-2.447-4.781-4.699-9.723-6.745-14.575
	c-0.2-0.531-0.2-1.055-0.005-1.586c0.202-0.484,0.585-0.888,1.062-1.099c0.978-0.44,2.16,0.087,2.552,1.063
	c2.019,4.81,4.229,9.626,6.632,14.319c0.241,0.495,0.283,1.016,0.12,1.543C107.042,364.681,106.735,365.089,106.262,365.332z
	 M110.087,372.3c-0.313,0.152-0.633,0.276-0.98,0.283c-0.711,0-1.379-0.407-1.694-1.011c-0.277-0.488-0.362-1.013-0.246-1.543
	c0.162-0.524,0.479-0.969,0.951-1.215c0.903-0.575,2.165-0.204,2.676,0.72C111.35,370.51,111.031,371.725,110.087,372.3z
	 M123.143,392.164c-0.311,0.284-0.744,0.404-1.183,0.404c-0.587,0.003-1.181-0.28-1.533-0.806
	c-3.118-4.242-6.163-8.694-8.956-13.314c-0.591-0.929-0.318-2.185,0.589-2.794c0.906-0.571,2.161-0.291,2.714,0.64
	c2.72,4.417,5.682,8.79,8.76,13.04l0.275,0.319h-0.08C124.162,390.505,123.923,391.557,123.143,392.164z M128.031,398.393
	c-0.359,0.288-0.789,0.455-1.266,0.455c-0.431,0.004-0.822-0.128-1.177-0.375l0.004,0.096l-0.357-0.451
	c-0.675-0.853-0.557-2.146,0.317-2.838c0.776-0.691,2.081-0.567,2.749,0.284C128.972,396.41,128.857,397.709,128.031,398.393z
	 M144.032,415.871c-0.356,0.407-0.906,0.606-1.418,0.606c-0.509,0.005-1.023-0.199-1.373-0.561
	c-3.785-3.722-7.455-7.644-10.881-11.649c-0.746-0.848-0.679-2.105,0.153-2.838c0.788-0.73,2.084-0.65,2.798,0.16
	c3.38,3.926,6.974,7.769,10.674,11.406c0.358,0.371,0.596,0.891,0.596,1.418C144.585,414.983,144.387,415.471,144.032,415.871z
	 M149.824,421.252c-0.396,0.407-0.95,0.654-1.499,0.654c-0.467,0-0.944-0.163-1.3-0.483c-0.82-0.771-0.912-2.022-0.159-2.882
	c0.593-0.684,1.649-0.852,2.444-0.403v-0.044l0.314,0.287C150.453,419.108,150.528,420.404,149.824,421.252z M168.301,435.852
	c-0.358,0.567-0.944,0.893-1.616,0.893c-0.393,0-0.784-0.164-1.104-0.363c-4.291-3.063-8.542-6.35-12.566-9.743
	c-0.429-0.319-0.659-0.812-0.706-1.336c-0.084-0.57,0.076-1.091,0.424-1.499c0.671-0.851,1.975-0.979,2.758-0.291
	c4.021,3.358,8.156,6.549,12.329,9.503C168.693,433.662,168.926,434.917,168.301,435.852z M174.837,440.21
	c-0.355,0.575-0.979,0.939-1.648,0.939c-0.396,0-0.746-0.124-1.062-0.32c-0.912-0.611-1.186-1.866-0.595-2.794
	c0.541-0.888,1.799-1.224,2.712-0.611C175.148,438.027,175.424,439.239,174.837,440.21z M195.393,451.609
	c-0.311,0.688-1.025,1.139-1.771,1.139c-0.272,0-0.58-0.084-0.858-0.211c-4.691-2.256-9.337-4.803-13.907-7.51
	c-0.471-0.276-0.784-0.729-0.908-1.251c-0.119-0.524-0.081-1.057,0.2-1.536c0.512-0.938,1.768-1.259,2.672-0.734
	c4.446,2.663,9.018,5.126,13.625,7.394C195.429,449.383,195.871,450.598,195.393,451.609z M202.521,454.8
	c-0.315,0.765-1.026,1.252-1.812,1.252c-0.24,0-0.508-0.08-0.742-0.157c-1.026-0.437-1.464-1.654-1.071-2.667
	c0.432-1.019,1.611-1.506,2.592-1.062C202.48,452.573,202.955,453.784,202.521,454.8z M224.611,462.665
	c-0.243,0.852-1.029,1.463-1.898,1.463c-0.189,0-0.342-0.044-0.537-0.08c-5.042-1.495-10.087-3.229-14.922-5.122
	c-1.032-0.408-1.541-1.579-1.152-2.635c0.394-1.011,1.576-1.542,2.563-1.179c4.757,1.898,9.68,3.595,14.6,5.047l0.115,0.04
	c0.473,0.16,0.831,0.479,1.073,0.928C224.688,461.57,224.771,462.138,224.611,462.665z M232.161,464.638
	c-0.235,0.933-1.018,1.542-1.926,1.542c-0.161,0.009-0.317,0-0.481-0.036c-1.052-0.282-1.684-1.379-1.406-2.471
	c0.229-1.051,1.335-1.75,2.354-1.462C231.773,462.494,232.397,463.59,232.161,464.638z M253.226,470.487h-0.242
	c-5.193-0.647-10.427-1.484-15.508-2.575c-0.544-0.116-0.979-0.4-1.253-0.848c-0.315-0.448-0.397-1.017-0.286-1.536
	c0.202-1.056,1.263-1.793,2.321-1.582c5.041,1.044,10.162,1.885,15.2,2.523l0.152,0.044c0.469,0.076,0.868,0.324,1.14,0.726
	c0.316,0.41,0.475,0.935,0.39,1.502C255.036,469.753,254.205,470.487,253.226,470.487z M260.973,471.281h-0.194
	c-0.515-0.037-0.989-0.273-1.343-0.691c-0.313-0.437-0.471-0.925-0.439-1.492c0.087-1.091,1.032-1.945,2.092-1.83
	c0.548,0.044,1.023,0.288,1.343,0.691c0.347,0.404,0.511,0.937,0.473,1.459C262.82,470.474,261.959,471.281,260.973,471.281z
	 M285.726,471.084c-0.358,0.4-0.857,0.646-1.375,0.646c-2.678,0.131-5.318,0.171-7.837,0.178c-2.556,0-5.229-0.028-7.871-0.152
	c-0.538,0-1.019-0.24-1.37-0.645c-0.354-0.407-0.551-0.892-0.513-1.451c0.031-1.1,0.902-1.95,1.959-1.95h0.08
	c5.39,0.233,10.425,0.175,15.387-0.021h0.069c1.07-0.005,1.936,0.884,1.979,1.979C286.235,470.189,286.075,470.721,285.726,471.084z
	 M293.516,470.542c-0.32,0.415-0.79,0.651-1.292,0.735h-0.167c-1.021,0.004-1.889-0.805-1.965-1.866
	c-0.12-1.121,0.706-2.104,1.812-2.185c1.06-0.087,2.001,0.766,2.078,1.855C294.021,469.614,293.868,470.142,293.516,470.542z
	 M315.509,467.883c-5.043,1.06-10.274,1.921-15.503,2.576h-0.236c-0.985,0.003-1.809-0.771-1.936-1.779
	c-0.08-0.526,0.084-1.052,0.396-1.503c0.313-0.407,0.789-0.688,1.292-0.771c5.078-0.614,10.197-1.474,15.223-2.492
	c1.032-0.247,2.092,0.477,2.284,1.576C317.27,466.58,316.563,467.636,315.509,467.883z M324.393,465.19
	c-0.269,0.45-0.705,0.771-1.215,0.897c-0.112,0.04-0.276,0.076-0.477,0.084c-0.898,0-1.688-0.646-1.877-1.586
	c-0.133-0.523-0.056-1.048,0.222-1.496c0.116-0.199,0.235-0.403,0.433-0.52h-0.825l1.571-0.415c1.069-0.24,2.165,0.407,2.401,1.499
	C324.749,464.187,324.669,464.703,324.393,465.19z M345.677,458.889c-4.767,1.867-9.794,3.617-14.913,5.127
	c-0.153,0.032-0.35,0.076-0.542,0.076c-0.866,0-1.615-0.61-1.854-1.455c-0.153-0.53-0.124-1.056,0.155-1.543
	c0.229-0.479,0.658-0.808,1.18-0.972c4.954-1.506,9.869-3.176,14.593-5.002l0.036-0.04c0.979-0.331,2.118,0.2,2.524,1.211
	C347.204,457.339,346.695,458.475,345.677,458.889z M352.982,455.877c-0.229,0.116-0.517,0.16-0.778,0.16
	c-0.785,0-1.502-0.48-1.813-1.216c-0.211-0.518-0.211-1.088,0-1.579c0.193-0.483,0.582-0.892,1.052-1.091
	c0.993-0.44,2.164,0.08,2.564,1.048C354.438,454.254,353.964,455.433,352.982,455.877z M374.062,445.027
	c-4.481,2.682-9.161,5.203-13.92,7.51c-0.275,0.131-0.557,0.211-0.822,0.211c-0.793,0-1.458-0.444-1.812-1.179
	c-0.2-0.48-0.24-1.005-0.044-1.536c0.153-0.479,0.514-0.884,0.981-1.135c4.6-2.271,9.158-4.712,13.527-7.311l0.116-0.083
	c0.897-0.523,2.161-0.16,2.678,0.769C375.317,443.208,375.001,444.464,374.062,445.027z M381.604,439.592
	c-0.116,0.524-0.425,0.973-0.854,1.255c-0.316,0.204-0.678,0.324-1.026,0.324c-0.705,0-1.331-0.363-1.688-0.968
	c-0.276-0.438-0.364-0.972-0.248-1.491c0.116-0.531,0.437-0.976,0.87-1.263c0.901-0.607,2.163-0.284,2.71,0.606
	C381.644,438.493,381.724,439.068,381.604,439.592z M399.843,426.684c-4.039,3.409-8.288,6.658-12.538,9.696
	c-0.349,0.243-0.702,0.371-1.139,0.371c-0.626,0.003-1.22-0.324-1.604-0.892c-0.287-0.444-0.407-0.969-0.327-1.499
	c0.116-0.524,0.4-1.013,0.829-1.295c4.282-3.05,8.404-6.259,12.305-9.54c0.778-0.647,2.081-0.531,2.751,0.283
	c0.35,0.438,0.502,0.972,0.434,1.495C400.519,425.825,400.241,426.319,399.843,426.684z M405.816,421.408
	c-0.355,0.364-0.822,0.522-1.295,0.522c-0.554,0.004-1.106-0.231-1.463-0.684c-0.342-0.407-0.546-0.924-0.506-1.463
	c0.04-0.521,0.271-1.048,0.662-1.367l0.084-0.088c0.745-0.647,2.036-0.531,2.718,0.24
	C406.722,419.422,406.646,420.677,405.816,421.408z M422.479,404.287c-3.456,4.017-7.113,7.905-10.879,11.642
	c-0.356,0.364-0.865,0.575-1.375,0.575c-0.509,0-1.025-0.207-1.422-0.611c-0.354-0.406-0.555-0.928-0.558-1.454
	c0.028-0.527,0.232-1.063,0.634-1.42c3.691-3.646,7.266-7.502,10.651-11.438c0.698-0.775,1.994-0.855,2.787-0.168
	c0.394,0.368,0.629,0.852,0.666,1.419C422.988,403.355,422.827,403.879,422.479,404.287z M427.587,398.127
	c-0.399,0.44-0.941,0.729-1.542,0.729c-0.427,0.004-0.858-0.16-1.213-0.439c-0.426-0.32-0.673-0.809-0.745-1.387
	c-0.052-0.518,0.119-1.053,0.43-1.451l0.073-0.088c0.669-0.765,1.936-0.889,2.71-0.203
	C428.133,395.97,428.248,397.275,427.587,398.127z M441.368,378.459c-2.751,4.501-5.771,8.961-8.958,13.294
	c-0.355,0.527-0.94,0.818-1.522,0.818c-0.435,0-0.87-0.16-1.233-0.407c-0.386-0.323-0.663-0.801-0.734-1.335
	c-0.08-0.521,0.035-1.092,0.342-1.503c3.07-4.169,6.011-8.594,8.798-13.054c0.549-0.893,1.808-1.213,2.714-0.611
	c0.429,0.287,0.753,0.73,0.826,1.259C441.718,377.437,441.646,378.012,441.368,378.459z M445.454,371.524
	c-0.354,0.65-1.029,1.016-1.698,1.016c-0.347,0-0.71-0.08-1.026-0.284c-0.426-0.284-0.742-0.684-0.902-1.215
	c-0.12-0.517-0.043-1.092,0.196-1.536c0.554-0.931,1.813-1.302,2.715-0.734C445.641,369.298,446.004,370.557,445.454,371.524z
	 M449.257,364.427c-0.36,0.694-1.022,1.096-1.732,1.096c-0.346,0-0.665-0.076-0.938-0.236c-0.953-0.524-1.344-1.739-0.837-2.707
	c2.364-4.584,4.563-9.336,6.557-14.072l0.08-0.284c0.429-0.975,1.594-1.506,2.587-1.063c0.993,0.447,1.47,1.619,1.029,2.674
	C453.921,354.821,451.644,359.729,449.257,364.427z"/>
<g>
	<g>
		<g>
			<path fill="#EE2C30" d="M208.438,222.967H78.038c-0.875,0-1.583-2.592-1.583-5.795c0-3.205,0.708-5.805,1.583-5.805h130.398
				c0.875,0,1.581,2.6,1.581,5.805C210.018,220.375,209.313,222.967,208.438,222.967z"/>
		</g>
	</g>
	<g>
		<g>
			<path fill="#EE2C30" d="M472.104,222.967h-130.4c-0.873,0-1.586-2.592-1.586-5.795c0-3.205,0.713-5.805,1.586-5.805h130.4
				c0.873,0,1.579,2.6,1.579,5.805C473.684,220.375,472.978,222.967,472.104,222.967z"/>
		</g>
	</g>
</g>
<g>
	<path fill="#010101" d="M275.028,540.826c-146.171,0-265.09-118.915-265.09-265.096c0-146.167,118.919-265.087,265.09-265.087
		c146.17,0,265.089,118.92,265.089,265.087C540.116,421.911,421.198,540.826,275.028,540.826z M275.028,3.719
		C125.037,3.719,3.015,125.742,3.015,275.73c0,149.993,122.022,272.019,272.013,272.019c149.991,0,272.014-122.025,272.014-272.019
		C547.041,125.742,425.019,3.719,275.028,3.719z"/>
</g>
<path fill="#FCB433" d="M275.415,496.65c-121.951,0-221.158-99.215-221.158-221.156c0-121.946,99.207-221.156,221.158-221.156
	c121.945,0,221.152,99.21,221.152,221.156C496.568,397.437,397.361,496.65,275.415,496.65z M275.415,63.382
	c-116.961,0-212.119,95.156-212.119,212.112c0,116.962,95.157,212.112,212.119,212.112c116.954,0,212.104-95.15,212.104-212.112
	C487.52,158.538,392.369,63.382,275.415,63.382z"/>
<g>
	<g>
		<path fill="#FAC83C" d="M505.846,285.467l0.479,0.189c32.054,12.013,23.707,59.483-10.521,59.854l-0.567,0.008
			c-3.277,9.016-3.376,9.273-6.658,18.293l0.371,0.313c25.984,22.288,1.859,64.021-30.423,52.623l-0.403-0.146
			c-6.182,7.36-6.349,7.558-12.521,14.909l0.418,0.75c16.805,29.805-20.087,60.787-46.54,39.081l-0.684-0.566
			c-8.312,4.813-8.543,4.947-16.856,9.742l0.02,0.096c5.613,33.784-39.708,50.279-57.124,20.789l-0.04-0.065
			c-9.459,1.659-9.721,1.702-19.173,3.365l-0.204,1.092c-6.31,33.62-54.466,33.62-60.774,0l-0.208-1.092
			c-9.454-1.663-9.712-1.706-19.172-3.365l-0.036,0.065c-17.416,29.49-62.735,12.991-57.118-20.789l0.012-0.096
			c-8.313-4.795-8.542-4.93-16.854-9.734l-0.684,0.56c-26.453,21.706-63.343-9.276-46.543-39.081l0.418-0.741
			c-6.17-7.36-6.338-7.558-12.515-14.918l-0.42,0.149c-32.273,11.402-56.406-30.332-30.423-52.62l0.376-0.318
			c-3.279-9.021-3.371-9.278-6.653-18.293l-0.569-0.009c-34.229-0.371-42.569-47.843-10.521-59.854l0.48-0.189
			c0-9.602,0-9.859,0-19.468l-0.482-0.18c-32.049-12.021-23.708-59.49,10.521-59.867l0.573-0.004
			c3.275-9.015,3.373-9.275,6.653-18.289l-0.369-0.318c-25.983-22.284-1.858-64.018,30.426-52.618l0.401,0.144
			c6.179-7.358,6.35-7.557,12.521-14.913l-0.417-0.744c-16.808-29.81,20.088-60.789,46.538-39.087l0.688,0.567
			c8.313-4.806,8.541-4.94,16.853-9.743l-0.012-0.093c-5.615-33.786,39.704-50.28,57.115-20.789l0.042,0.069
			c9.459-1.663,9.718-1.71,19.172-3.369l0.208-1.093c6.31-33.617,54.466-33.617,60.774,0l0.204,1.095
			c9.452,1.657,9.714,1.705,19.173,3.367l0.04-0.063c17.416-29.491,62.733-12.998,57.12,20.785l-0.016,0.087
			c8.313,4.802,8.539,4.939,16.856,9.745l0.684-0.565c26.453-21.702,63.345,9.277,46.54,39.083l-0.422,0.746
			c6.178,7.355,6.345,7.555,12.521,14.91l0.415-0.144c32.278-11.402,56.407,30.33,30.424,52.619l-0.38,0.322
			c3.282,9.019,3.381,9.274,6.658,18.291l0.567,0.007c34.229,0.371,42.566,47.841,10.521,59.861l-0.479,0.18
			C505.846,275.607,505.846,275.865,505.846,285.467z M540.845,275.73c0-146.802-119.006-265.81-265.817-265.81
			C128.224,9.921,9.214,128.929,9.214,275.73c0,146.806,119.01,265.819,265.813,265.819
			C421.839,541.55,540.845,422.536,540.845,275.73z"/>
	</g>
</g>
<g>
	<path fill="#EE2C30" d="M284.838,39.592c0-5.419-4.396-9.811-9.811-9.811c-5.421,0-9.809,4.392-9.809,9.811
		c0,5.417,4.388,9.807,9.809,9.807C280.443,49.399,284.838,45.01,284.838,39.592z"/>
	<path fill="#EE2C30" d="M284.838,511.877c0-5.418-4.396-9.813-9.811-9.813c-5.421,0-9.809,4.395-9.809,9.813
		c0,5.421,4.388,9.805,9.809,9.805C280.443,521.682,284.838,517.298,284.838,511.877z"/>
	<path fill="#EE2C30" d="M203.629,50.431c-1.854-5.092-7.482-7.722-12.574-5.872c-5.093,1.85-7.718,7.477-5.866,12.57
		c1.847,5.094,7.476,7.72,12.566,5.872C202.851,61.147,205.476,55.522,203.629,50.431z"/>
	<path fill="#EE2C30" d="M364.868,494.337c-1.853-5.086-7.478-7.717-12.57-5.872c-5.094,1.853-7.72,7.479-5.876,12.573
		c1.858,5.09,7.477,7.721,12.574,5.869C364.093,505.063,366.72,499.434,364.868,494.337z"/>
	<path fill="#EE2C30" d="M130.994,88.344c-3.475-4.155-9.663-4.704-13.819-1.229c-4.151,3.476-4.699,9.667-1.223,13.82
		c3.477,4.157,9.663,4.704,13.815,1.228C133.927,98.688,134.474,92.496,130.994,88.344z"/>
	<path fill="#EE2C30" d="M434.104,450.532c-3.479-4.154-9.667-4.704-13.818-1.223c-4.157,3.472-4.704,9.659-1.229,13.817
		c3.479,4.151,9.667,4.701,13.818,1.223C437.028,460.872,437.58,454.688,434.104,450.532z"/>
	<path fill="#EE2C30" d="M75.675,148.775c-4.688-2.716-10.691-1.123-13.409,3.563c-2.721,4.688-1.119,10.693,3.565,13.41
		c4.686,2.718,10.688,1.121,13.404-3.569C81.955,157.498,80.361,151.493,75.675,148.775z"/>
	<path fill="#EE2C30" d="M484.22,385.722c-4.687-2.722-10.689-1.128-13.403,3.565c-2.721,4.686-1.12,10.688,3.56,13.406
		c4.688,2.718,10.691,1.124,13.409-3.565C490.503,394.442,488.906,388.436,484.22,385.722z"/>
	<circle fill="#EE2C30" cx="42.58" cy="234.121" r="9.809"/>
	<path fill="#EE2C30" d="M509.202,307.692c-5.33-0.958-10.434,2.594-11.384,7.921c-0.96,5.341,2.591,10.434,7.928,11.391
		c5.33,0.957,10.432-2.594,11.382-7.935C518.084,313.743,514.541,308.646,509.202,307.692z"/>
	<path fill="#EE2C30" d="M40.668,306.313c-5.346,0.925-8.919,6.004-7.993,11.338c0.92,5.341,5.998,8.921,11.333,7.997
		c5.341-0.926,8.921-6.004,7.999-11.338C51.081,308.97,46.007,305.391,40.668,306.313z"/>
	<path fill="#EE2C30" d="M506.041,225.822c-5.334,0.924-8.916,5.998-7.996,11.338c0.924,5.339,6.003,8.917,11.344,7.995
		c5.334-0.922,8.918-6,7.99-11.337C516.453,228.478,511.383,224.899,506.041,225.822z"/>
	<path fill="#EE2C30" d="M65.188,384.491c-4.704,2.686-6.332,8.678-3.644,13.382c2.691,4.7,8.686,6.338,13.383,3.646
		c4.708-2.695,6.341-8.681,3.646-13.389C75.884,383.43,69.889,381.796,65.188,384.491z"/>
	<path fill="#EE2C30" d="M475.123,149.952c-4.708,2.69-6.334,8.683-3.646,13.385c2.692,4.703,8.688,6.334,13.389,3.64
		c4.697-2.687,6.334-8.679,3.643-13.381C485.823,148.89,479.824,147.262,475.123,149.952z"/>
	<path fill="#EE2C30" d="M114.922,449.594c-3.501,4.133-2.985,10.325,1.149,13.821c4.134,3.504,10.323,2.991,13.827-1.146
		c3.5-4.133,2.985-10.317-1.149-13.824C124.615,444.944,118.428,445.461,114.922,449.594z"/>
	<path fill="#EE2C30" d="M420.157,89.196c-3.5,4.133-2.991,10.323,1.144,13.823c4.133,3.507,10.332,2.993,13.829-1.141
		c3.503-4.138,2.985-10.329-1.144-13.831C429.851,84.55,423.661,85.061,420.157,89.196z"/>
	<path fill="#EE2C30" d="M183.897,493.806c-1.875,5.082,0.715,10.727,5.8,12.604c5.081,1.878,10.726-0.713,12.606-5.792
		c1.879-5.086-0.72-10.727-5.797-12.604C191.421,486.133,185.782,488.727,183.897,493.806z"/>
	<path fill="#EE2C30" d="M347.754,50.854c-1.881,5.081,0.71,10.724,5.796,12.604c5.079,1.879,10.722-0.715,12.603-5.797
		c1.877-5.083-0.717-10.728-5.796-12.606C355.274,43.18,349.635,45.772,347.754,50.854z"/>
</g>
<path fill="#010101" d="M275.415,488.349c-117.373,0-212.855-95.488-212.855-212.854c0-117.367,95.483-212.855,212.855-212.855
	c117.364,0,212.847,95.488,212.847,212.855C488.262,392.859,392.78,488.349,275.415,488.349z M275.415,71.343
	c-112.572,0-204.157,91.585-204.157,204.151c0,112.574,91.585,204.146,204.157,204.146c112.565,0,204.145-91.572,204.145-204.146
	C479.56,162.928,387.981,71.343,275.415,71.343z"/>
<g>
	<path fill="#010101" d="M195.276,286.871c1.495-1.492,2.856-2.445,4.084-2.854c1.225-0.414,2.146-0.414,2.754,0
		c0.611,0.407,0.883,1.084,0.817,2.037c-0.067,0.953-0.581,2.045-1.532,3.269c-3.54,4.628-7.216,8.71-11.025,12.25
		c-3.266,3.132-6.94,5.955-11.023,8.474c-4.084,2.521-8.306,3.776-12.658,3.776c-3.13,0-5.274-0.853-6.432-2.556
		c-1.155-1.694-1.667-3.806-1.532-6.322c0.136-2.521,0.683-5.275,1.635-8.272c0.95-2.991,1.973-5.851,3.061-8.571
		c2.723-7.219,4.932-13,6.636-17.356c1.701-4.355,2.892-7.42,3.573-9.19c2.452,3.134,5.851,4.695,10.209,4.695
		c1.361,0,2.381-0.067,3.062-0.202l-7.349,21.646c-1.091,3.261-2.078,6.226-2.961,8.878c-0.888,2.655-0.784,3.987,0.307,3.987
		c1.226,0,2.553-0.414,3.982-1.229c1.426-0.813,2.959-1.906,4.593-3.267c1.634-1.361,3.269-2.856,4.899-4.494
		C192.009,289.936,193.641,288.37,195.276,286.871z"/>
	<path fill="#010101" d="M192.644,252.368c0,2.446-0.856,4.526-2.566,6.237c-1.716,1.712-3.793,2.565-6.236,2.565
		c-2.447,0-4.526-0.853-6.236-2.565c-1.714-1.711-2.566-3.791-2.566-6.237c0-2.447,0.853-4.521,2.566-6.238
		c1.71-1.71,3.789-2.567,6.236-2.567c2.443,0,4.521,0.857,6.236,2.567C191.787,247.848,192.644,249.921,192.644,252.368z"/>
	<path fill="#010101" d="M226.309,258.698c4.626,0.408,8.029,2.449,10.207,6.125c0.272-0.816,0.511-1.533,0.715-2.145
		c0.204-0.611,0.442-1.124,0.715-1.532l0.613-1.224h14.702c-1.224,4.084-2.454,7.896-3.676,11.433
		c-1.092,3.13-2.146,6.23-3.167,9.288c-1.02,3.069-1.803,5.412-2.346,7.051c-1.091,3.26-2.074,6.225-2.961,8.877
		c-0.884,2.656-0.92,3.986-0.104,3.986c1.226,0,2.585-0.414,4.084-1.229c1.497-0.814,3.027-1.906,4.597-3.268
		c1.562-1.36,3.162-2.855,4.797-4.492c1.635-1.635,3.267-3.198,4.901-4.697c1.632-1.492,3.063-2.445,4.286-2.854
		c1.225-0.414,2.143-0.414,2.76,0c0.611,0.407,0.846,1.084,0.713,2.037c-0.136,0.953-0.682,2.045-1.635,3.269
		c-3.54,4.628-7.146,8.71-10.818,12.25c-3.267,3.132-6.913,5.955-10.925,8.474c-4.015,2.521-8.201,3.776-12.558,3.776
		c-3.676,0-6.023-1.057-7.042-3.166c-1.022-2.109-1.328-4.722-0.92-7.858c-3.675,3.948-7.489,6.979-11.434,9.081
		c-3.948,2.11-7.487,2.488-10.615,1.128c-2.181-0.953-3.951-2.483-5.311-4.591c-1.358-2.11-2.176-4.665-2.451-7.662
		c-0.269-2.991,0-6.295,0.817-9.899c0.819-3.605,2.247-7.455,4.29-11.537c1.632-2.99,3.538-5.817,5.716-8.473
		c2.177-2.654,4.524-4.932,7.043-6.838c2.519-1.907,5.07-3.336,7.658-4.29C221.542,258.77,223.989,258.427,226.309,258.698z
		 M229.779,282.178c2.314-4.767,3.063-8.474,2.247-11.127c-0.818-2.656-2.725-3.913-5.717-3.778
		c-2.318,0.274-4.593,1.705-6.84,4.288c-2.249,2.587-4.324,5.917-6.227,10.007c-1.094,2.451-2.078,4.899-2.962,7.342
		c-0.886,2.456-1.565,4.701-2.04,6.744c-0.479,2.039-0.683,3.744-0.613,5.103c0.066,1.364,0.511,2.183,1.328,2.452
		c1.495,0.684,3.23,0.407,5.206-0.814c1.97-1.227,3.909-2.93,5.818-5.108c1.903-2.175,3.74-4.624,5.513-7.349
		C227.26,287.213,228.686,284.626,229.779,282.178z"/>
	<path fill="#010101" d="M290.419,258.698c4.628,0.408,8.025,2.449,10.209,6.125c0.27-0.816,0.51-1.533,0.713-2.145
		c0.204-0.611,0.439-1.124,0.714-1.532l0.61-1.224h14.706c-1.227,4.084-2.452,7.896-3.683,11.433
		c-1.084,3.13-2.144,6.23-3.162,9.288c-1.019,3.069-1.805,5.412-2.347,7.051c-1.091,3.26-2.077,6.225-2.961,8.877
		c-0.888,2.656-0.917,3.986-0.103,3.986c1.223,0,2.584-0.414,4.083-1.229c1.497-0.814,3.025-1.906,4.591-3.268
		c1.563-1.36,3.165-2.855,4.803-4.492c1.63-1.635,3.264-3.198,4.904-4.697c1.63-1.492,3.06-2.445,4.286-2.854
		c1.222-0.414,2.139-0.414,2.754,0c0.61,0.407,0.848,1.084,0.717,2.037c-0.139,0.953-0.686,2.045-1.638,3.269
		c-3.54,4.628-7.146,8.71-10.819,12.25c-3.269,3.132-6.913,5.955-10.926,8.474c-4.015,2.521-8.201,3.776-12.557,3.776
		c-3.675,0-6.024-1.057-7.044-3.166c-1.019-2.109-1.328-4.722-0.917-7.858c-3.674,3.948-7.486,6.979-11.435,9.081
		c-3.949,2.11-7.489,2.488-10.616,1.128c-2.181-0.953-3.951-2.483-5.31-4.591c-1.357-2.11-2.177-4.665-2.45-7.662
		c-0.271-2.991,0-6.295,0.816-9.899c0.816-3.605,2.248-7.455,4.289-11.537c1.632-2.99,3.538-5.817,5.717-8.473
		c2.177-2.654,4.523-4.932,7.044-6.838c2.52-1.907,5.068-3.336,7.659-4.29C285.653,258.77,288.098,258.427,290.419,258.698z
		 M293.89,282.178c2.314-4.767,3.057-8.474,2.241-11.127c-0.814-2.656-2.721-3.913-5.712-3.778c-2.321,0.274-4.595,1.705-6.84,4.288
		c-2.248,2.587-4.322,5.917-6.229,10.007c-1.091,2.451-2.077,4.899-2.959,7.342c-0.888,2.456-1.57,4.701-2.041,6.744
		c-0.479,2.039-0.686,3.744-0.615,5.103c0.067,1.364,0.51,2.183,1.328,2.452c1.496,0.684,3.231,0.407,5.208-0.814
		c1.973-1.227,3.911-2.93,5.817-5.108c1.898-2.175,3.74-4.624,5.508-7.349C291.365,287.213,292.795,284.626,293.89,282.178z"/>
	<path fill="#010101" d="M323.494,286.871c2.172-2.854,4.29-5.852,6.326-8.979c2.046-3.133,3.813-6.06,5.306-8.783
		c1.768-3.131,3.478-6.19,5.106-9.187h15.313c-0.542,2.177-1.735,5.956-3.569,11.331c-1.841,5.379-3.918,10.993-6.23,16.848
		c2.862-3.951,5.883-7.929,9.084-11.949c3.193-4.01,6.402-7.518,9.602-10.513c3.194-2.99,6.29-5.271,9.284-6.838
		c2.995-1.563,5.724-1.941,8.172-1.124c1.634,0.545,2.478,2.008,2.551,4.391c0.065,2.381-0.31,5.174-1.121,8.37
		c-0.821,3.198-1.877,6.567-3.169,10.107c-1.291,3.54-2.483,6.771-3.568,9.695c-1.096,2.934-1.877,5.386-2.351,7.354
		c-0.479,1.977-0.306,2.965,0.509,2.965c1.228,0,2.583-0.414,4.086-1.229c1.495-0.814,3.027-1.906,4.596-3.268
		c1.558-1.36,3.158-2.855,4.796-4.492c1.633-1.635,3.267-3.198,4.899-4.697c1.635-1.492,3.027-2.445,4.188-2.854
		c1.156-0.414,2.037-0.414,2.651,0c0.615,0.407,0.885,1.084,0.818,2.037c-0.072,0.953-0.582,2.045-1.535,3.268
		c-3.544,4.629-7.142,8.711-10.819,12.25c-3.268,3.133-6.912,5.956-10.922,8.475c-4.021,2.521-8.2,3.776-12.56,3.776
		c-3.268,0-5.479-0.889-6.637-2.652c-1.156-1.769-1.666-3.984-1.527-6.64c0.131-2.649,0.713-5.538,1.735-8.674
		c1.021-3.133,2.07-6.024,3.161-8.678c1.092-2.656,1.942-4.863,2.555-6.637c0.61-1.766,0.574-2.652-0.103-2.652
		c-0.681,0-1.806,0.819-3.369,2.445c-1.564,1.637-3.336,3.715-5.309,6.229c-1.976,2.524-4.057,5.275-6.226,8.271
		c-2.179,2.994-4.225,5.817-6.126,8.474c-1.907,2.655-3.508,4.935-4.796,6.841c-1.303,1.905-2.081,3.063-2.351,3.471v0.204h-12.454
		c1.495-3.402,3.162-7.889,4.999-13.477c1.846-5.578,3.576-11.229,5.21-16.947l-4.086,5.924c-1.495,1.906-2.826,3.096-3.979,3.576
		c-1.161,0.477-2.078,0.477-2.758,0c-0.678-0.48-0.982-1.299-0.917-2.448C322.028,289.294,322.541,288.102,323.494,286.871z"/>
	<path fill="#83C445" d="M417.996,246.756l-12.563,19.266h-3.591l6.581-19.266H417.996z"/>
	<path fill="#010101" d="M417.073,275.032c-1.092-2.177-1.192-4.729-0.31-7.658c0.884-2.925,2.252-5.614,4.086-8.063
		c1.837-2.452,3.951-4.322,6.334-5.617c2.376-1.293,4.588-1.392,6.633-0.304c2.044,1.088,2.823,2.722,2.351,4.897
		c-0.479,2.181-1.471,4.426-2.962,6.74c-1.638,2.586-3.813,5.377-6.533,8.37c1.222,0.682,2.685,1.665,4.391,2.958
		c1.699,1.3,3.3,2.896,4.799,4.795c1.496,1.914,2.787,4.058,3.879,6.438c1.084,2.383,1.63,4.938,1.63,7.658
		c0,0.542-0.028,1.02-0.095,1.427c-0.073,0.41-0.108,0.813-0.108,1.226c2.176-1.765,4.321-3.642,6.433-5.613
		c2.11-1.973,4.049-3.779,5.821-5.413c1.63-1.492,3.025-2.444,4.184-2.853c1.157-0.416,2.041-0.416,2.652,0
		c0.614,0.406,0.884,1.084,0.817,2.037c-0.071,0.952-0.582,2.045-1.526,3.268c-3.413,3.675-6.877,7.148-10.42,10.416
		c-3.13,2.722-6.63,5.374-10.512,7.961c-3.879,2.586-7.794,4.424-11.74,5.512c-2.588,0.546-5.309,0.749-8.168,0.611
		c-2.994-0.273-5.378-1.224-7.146-2.856c-1.771-1.634-2.892-3.438-3.372-5.417c-0.47-1.965-0.262-3.806,0.615-5.509
		c0.884-1.694,2.55-2.758,5.002-3.165c2.867-0.402,4.526-0.064,5.003,1.021c0.477,1.096,0.546,2.42,0.207,3.983
		c-0.342,1.564-0.611,3.063-0.818,4.49c-0.2,1.43,0.51,2.216,2.146,2.35c1.765,0.136,3.089-0.646,3.979-2.35
		c0.88-1.703,1.327-3.911,1.327-6.633c0-2.726-0.414-5.753-1.229-9.089s-2.041-6.566-3.676-9.702l-6.529,8.375
		c-1.499,1.905-2.827,3.096-3.98,3.575c-1.156,0.478-2.077,0.478-2.754,0c-0.684-0.479-0.993-1.299-0.92-2.447
		c0.068-1.157,0.578-2.352,1.524-3.58L417.073,275.032z"/>
	<path fill="#010101" d="M170.675,284.02c-0.613-0.416-1.53-0.416-2.756,0c-1.225,0.406-2.586,1.359-4.083,2.853
		c-1.632,1.499-3.198,3.101-4.695,4.803c-1.499,1.702-2.96,3.234-4.392,4.591c-1.429,1.361-2.724,2.481-3.878,3.369
		c-1.159,0.889-2.144,1.193-2.96,0.924c-1.362-0.275-1.429-2.793-0.204-7.56c0.816-3.129,0.816-5.785,0-7.961
		c-0.819-2.179-2.932-3.401-6.331-3.675c3.265-2.176,5.988-4.496,8.166-6.945c2.178-2.449,3.949-4.761,5.31-6.938
		c1.495-2.452,2.652-4.903,3.471-7.351h-17.149c-2.723,7.078-5.446,12.486-8.166,16.229c-2.726,3.746-5.245,6.57-7.557,8.474
		c2.176-6.396,4.391-12.963,6.638-19.701c2.245-6.74,4.315-12.965,6.225-18.682c1.266-3.796,2.53-7.591,3.797-11.386h-14.61
		c-0.206,0.602-0.404,1.173-0.619,1.788c-1.089,3.134-2.347,6.707-3.778,10.722c-1.428,4.015-2.89,8.266-4.388,12.759
		c-0.274,0.411-0.92,1.53-1.939,3.371c-1.021,1.837-2.28,4.013-3.779,6.532c-1.497,2.521-3.165,5.275-5,8.27
		c-1.837,2.994-3.778,5.789-5.817,8.368c-0.952,1.229-1.465,2.423-1.532,3.58c-0.068,1.149,0.238,1.968,0.917,2.448
		c0.682,0.477,1.6,0.477,2.76,0c1.155-0.48,2.481-1.67,3.979-3.576c0-0.135,0.067-0.204,0.206-0.204
		c-1.91,5.174-3.607,9.937-5.104,14.291c-1.495,4.357-2.789,7.83-3.88,10.413h16.128l6.536-19.6c1.359-1.5,2.787-2.824,4.288-3.983
		c1.495-1.15,2.756-1.87,3.776-2.14c1.021-0.272,1.701-0.037,2.041,0.713c0.338,0.75,0.102,2.277-0.715,4.596
		c-0.953,2.725-1.771,5.308-2.449,7.757c-0.683,2.448-0.888,4.595-0.613,6.436c0.271,1.834,1.123,3.333,2.552,4.486
		c1.43,1.153,3.774,1.735,7.042,1.735c3.949,0,7.83-1.256,11.644-3.776c3.807-2.519,7.211-5.342,10.205-8.474
		c3.54-3.54,6.873-7.622,10.005-12.25c0.954-1.223,1.461-2.314,1.534-3.268C171.557,285.104,171.288,284.426,170.675,284.02z"/>
</g>
<g>
	<g>
		<path fill="#EE333E" d="M206.289,413.703l3.646-23.088h9.186c2.609,0,4.563,0.629,5.864,1.881c1.295,1.259,1.739,3.161,1.33,5.712
			c-0.816,5.225-3.948,7.844-9.398,7.844h-3.398l-1.225,7.651H206.289z M215.168,395.45l-0.89,5.756h1.014
			c0.467,0,0.831,0,1.086-0.008c0.253-0.016,0.586-0.044,0.995-0.096c0.405-0.051,0.729-0.135,0.964-0.246
			c0.234-0.109,0.483-0.271,0.751-0.474c0.262-0.2,0.471-0.474,0.627-0.814c0.153-0.335,0.26-0.722,0.322-1.176
			c0.1-0.57,0.094-1.048-0.02-1.423c-0.11-0.378-0.258-0.669-0.439-0.873c-0.185-0.204-0.491-0.355-0.92-0.443
			c-0.432-0.091-0.796-0.146-1.104-0.174c-0.304-0.016-0.766-0.029-1.377-0.029H215.168L215.168,395.45z"/>
		<path fill="#EE333E" d="M236.173,390.615l-3.64,23.088h-6.004l3.645-23.088H236.173z"/>
		<path fill="#EE333E" d="M245.729,408.62h9.674l-0.795,5.083h-19.782l13.779-18.006h-9.064l0.797-5.082h19.109L245.729,408.62z"/>
		<path fill="#EE333E" d="M267.376,408.62h9.676l-0.795,5.083h-19.783l13.778-18.006h-9.062l0.792-5.082h19.112L267.376,408.62z"/>
		<path fill="#EE333E" d="M295.731,395.697h-7.135l-0.611,3.859h6.765l-0.793,5.079h-6.769l-0.641,3.983h7.131l-0.793,5.083h-13.138
			l3.643-23.088h13.134L295.731,395.697z"/>
		<path fill="#EE333E" d="M310.029,404.24l5.757,9.463h-7.471l-4.257-8.881h-0.062l-1.408,8.881h-5.999l3.646-23.088h8.966
			c2.411,0,4.264,0.593,5.544,1.771c1.288,1.189,1.747,2.961,1.383,5.333c-0.271,1.652-0.946,3.082-2.022,4.286
			C313.02,403.21,311.666,403.956,310.029,404.24z M305.528,395.21l-0.92,5.756h0.582c0.554,0,1.053-0.037,1.503-0.108
			c0.447-0.073,0.905-0.196,1.379-0.383c0.466-0.183,0.849-0.477,1.149-0.888c0.291-0.404,0.487-0.906,0.582-1.499
			c0.087-0.593,0.044-1.096-0.127-1.499c-0.172-0.411-0.455-0.706-0.859-0.892c-0.398-0.183-0.811-0.307-1.232-0.382
			c-0.43-0.069-0.924-0.105-1.471-0.105H305.528L305.528,395.21z"/>
		<path fill="#EE333E" d="M327.056,390.615l-3.646,23.088h-5.995l3.638-23.088H327.056z"/>
		<path fill="#EE333E" d="M342.122,409.69h-8.271l-2.236,4.013h-6.367l12.525-23.088h6.554l5.05,23.088h-6.4L342.122,409.69z
			 M341.234,405.103l-1.283-7.354h-0.063l-3.648,7.354H341.234z"/>
	</g>
	<polygon fill="#EE333E" points="288.768,374.37 283.026,376.873 277.831,369.953 272.639,376.873 266.898,374.37 269.501,383.36 
		286.162,383.36 	"/>
</g>
<g>
	<circle fill="#EE2C2B" cx="141.586" cy="180.237" r="3.385"/>
	<circle fill="#EE2C2B" cx="409.783" cy="180.237" r="3.385"/>
</g>
</svg>
