<?xml version="1.0" encoding="utf-8"?>
<!-- Generator: Adobe Illustrator 16.0.0, SVG Export Plug-In . SVG Version: 6.00 Build 0)  -->
<!DOCTYPE svg PUBLIC "-//W3C//DTD SVG 1.1//EN" "http://www.w3.org/Graphics/SVG/1.1/DTD/svg11.dtd">
<svg version="1.1" id="Layer_1" xmlns="http://www.w3.org/2000/svg" xmlns:xlink="http://www.w3.org/1999/xlink" x="0px" y="0px"
	 width="135px" height="101.682px" viewBox="0 0 135 101.682" enable-background="new 0 0 135 101.682" xml:space="preserve">
<path fill="#6B6869" d="M135,0H0c0,1.656,132,73,132,73c1.657,0,3-1.345,3-3V0z"/>
<path fill="#474546" d="M0,0c0,0,1.343,0,3,0h132C135,1.656,3,73,3,73c-1.657,0-3-1.345-3-3V0z"/>
<path fill="#6B6869" d="M135,0H0c0,1.656,132,73,132,73c1.657,0,3-1.345,3-3V0z"/>
<g>
	<path fill="#FFFFFF" d="M0.47,77.247c0-0.203,0.063-0.367,0.19-0.494c0.126-0.126,0.291-0.189,0.494-0.189h4.104
		c0.583,0,1.07,0.197,1.463,0.589c0.393,0.394,0.589,0.882,0.589,1.463c0-0.583,0.196-1.069,0.589-1.463
		c0.393-0.392,0.88-0.589,1.463-0.589h2.736c0.583,0,1.07,0.197,1.463,0.589c0.392,0.394,0.589,0.882,0.589,1.463v22.572
		c0,0.203-0.063,0.368-0.19,0.494c-0.127,0.127-0.292,0.189-0.494,0.189h-1.368c-0.203,0-0.367-0.063-0.494-0.189
		s-0.19-0.291-0.19-0.494V79.982c0-0.202-0.064-0.367-0.19-0.494c-0.127-0.126-0.292-0.189-0.494-0.189H6.626
		c0.583,0,1.07,0.196,1.463,0.59c0.393,0.393,0.589,0.88,0.589,1.463v19.836c0,0.203-0.063,0.368-0.19,0.494
		c-0.127,0.127-0.292,0.189-0.494,0.189H6.626c-0.203,0-0.368-0.063-0.494-0.189c-0.127-0.126-0.19-0.291-0.19-0.494V79.982
		c0-0.202-0.063-0.367-0.19-0.494c-0.127-0.126-0.292-0.189-0.494-0.189H1.154c0.583,0,1.07,0.196,1.463,0.59
		c0.393,0.393,0.589,0.88,0.589,1.463v19.836c0,0.203-0.064,0.368-0.19,0.494c-0.127,0.127-0.292,0.189-0.494,0.189H1.154
		c-0.203,0-0.368-0.063-0.494-0.189c-0.127-0.126-0.19-0.291-0.19-0.494V77.247z"/>
	<path fill="#FFFFFF" d="M22.358,76.563c0.583,0,1.07,0.197,1.463,0.589c0.393,0.394,0.589,0.882,0.589,1.463v22.572
		c0,0.203-0.063,0.368-0.19,0.494c-0.127,0.127-0.292,0.189-0.494,0.189h-1.368c-0.203,0-0.368-0.063-0.494-0.189
		c-0.127-0.126-0.19-0.291-0.19-0.494v-8.208c0-0.202-0.063-0.367-0.19-0.494c-0.127-0.126-0.292-0.189-0.494-0.189h-4.104
		c0.583,0,1.07,0.197,1.463,0.589c0.393,0.394,0.589,0.881,0.589,1.464v6.84c0,0.203-0.064,0.368-0.19,0.494
		c-0.127,0.127-0.292,0.189-0.494,0.189h-1.368c-0.203,0-0.368-0.063-0.494-0.189c-0.127-0.126-0.19-0.291-0.19-0.494V78.615
		c0-0.583,0.196-1.069,0.589-1.463c0.392-0.392,0.88-0.589,1.463-0.589H22.358z M21.674,79.982c0-0.202-0.063-0.367-0.19-0.494
		c-0.127-0.126-0.292-0.189-0.494-0.189h-4.104c0.583,0,1.07,0.196,1.463,0.59c0.393,0.393,0.589,0.88,0.589,1.463v7.523
		c0,0.203,0.063,0.368,0.19,0.494c0.126,0.127,0.291,0.189,0.494,0.189h1.368c0.203,0,0.367-0.063,0.494-0.189
		c0.126-0.126,0.19-0.291,0.19-0.494V79.982z"/>
	<path fill="#FFFFFF" d="M29.881,101.871c-0.203,0-0.367-0.063-0.494-0.189c-0.127-0.126-0.19-0.291-0.19-0.494V79.982
		c0-0.202-0.064-0.367-0.19-0.494c-0.127-0.126-0.292-0.189-0.494-0.189h-1.368c-0.203,0-0.368-0.063-0.494-0.189
		c-0.127-0.126-0.19-0.291-0.19-0.494v-1.367c0-0.203,0.063-0.367,0.19-0.494c0.126-0.126,0.291-0.189,0.494-0.189h6.84
		c0.203,0,0.367,0.063,0.494,0.189c0.126,0.127,0.19,0.292,0.19,0.494v1.367c0,0.203-0.063,0.367-0.19,0.494
		s-0.292,0.189-0.494,0.189h-4.104c0.583,0,1.07,0.196,1.463,0.59c0.392,0.393,0.589,0.88,0.589,1.463v19.836
		c0,0.203-0.063,0.368-0.19,0.494c-0.127,0.127-0.292,0.189-0.494,0.189L29.881,101.871L29.881,101.871z"/>
	<path fill="#FFFFFF" d="M36.721,77.247c0-0.203,0.063-0.367,0.19-0.494c0.126-0.126,0.291-0.189,0.494-0.189h1.368
		c0.202,0,0.367,0.063,0.494,0.189c0.126,0.127,0.19,0.292,0.19,0.494v11.628c0,0.203,0.063,0.368,0.19,0.494
		c0.126,0.127,0.291,0.189,0.494,0.189h1.368c0.203,0,0.367-0.063,0.494-0.189c0.126-0.126,0.19-0.291,0.19-0.494V77.247
		c0-0.203,0.063-0.367,0.19-0.494c0.126-0.126,0.291-0.189,0.494-0.189h1.368c0.203,0,0.367,0.063,0.494,0.189
		c0.126,0.127,0.19,0.292,0.19,0.494v23.939c0,0.203-0.063,0.368-0.19,0.494c-0.127,0.127-0.292,0.189-0.494,0.189h-1.368
		c-0.203,0-0.368-0.063-0.494-0.189c-0.127-0.126-0.19-0.291-0.19-0.494v-8.208c0-0.202-0.063-0.367-0.19-0.494
		c-0.127-0.126-0.292-0.189-0.494-0.189h-4.104c0.583,0,1.07,0.197,1.463,0.589c0.393,0.394,0.589,0.881,0.589,1.464v6.84
		c0,0.203-0.064,0.368-0.19,0.494c-0.127,0.127-0.292,0.189-0.494,0.189h-1.368c-0.203,0-0.368-0.063-0.494-0.189
		c-0.127-0.126-0.19-0.291-0.19-0.494V77.247z"/>
	<path fill="#FFFFFF" d="M53.136,76.563c0.583,0,1.07,0.197,1.463,0.589c0.393,0.394,0.59,0.882,0.59,1.463v22.572
		c0,0.203-0.063,0.368-0.19,0.494c-0.127,0.127-0.291,0.189-0.494,0.189h-1.368c-0.203,0-0.367-0.063-0.493-0.189
		c-0.128-0.126-0.19-0.291-0.19-0.494v-8.208c0-0.202-0.063-0.367-0.19-0.494c-0.127-0.126-0.291-0.189-0.493-0.189h-4.104
		c0.583,0,1.07,0.197,1.463,0.589c0.393,0.394,0.589,0.881,0.589,1.464v6.84c0,0.203-0.064,0.368-0.19,0.494
		c-0.127,0.127-0.292,0.189-0.494,0.189h-1.368c-0.203,0-0.368-0.063-0.494-0.189c-0.127-0.126-0.19-0.291-0.19-0.494V78.615
		c0-0.583,0.196-1.069,0.589-1.463c0.392-0.392,0.88-0.589,1.463-0.589H53.136z M52.452,79.982c0-0.202-0.063-0.367-0.19-0.494
		c-0.127-0.126-0.291-0.189-0.493-0.189h-4.104c0.583,0,1.07,0.196,1.463,0.59c0.393,0.393,0.589,0.88,0.589,1.463v7.523
		c0,0.203,0.063,0.368,0.19,0.494c0.126,0.127,0.291,0.189,0.494,0.189h1.369c0.202,0,0.366-0.063,0.493-0.189
		c0.127-0.126,0.19-0.291,0.19-0.494L52.452,79.982L52.452,79.982z"/>
	<path fill="#FFFFFF" d="M66.131,101.871c-0.203,0-0.367-0.063-0.494-0.189c-0.127-0.126-0.189-0.291-0.189-0.494V77.248
		c0-0.203,0.063-0.367,0.189-0.494c0.127-0.126,0.291-0.189,0.494-0.189h1.368c0.202,0,0.367,0.063,0.494,0.189
		c0.126,0.127,0.188,0.292,0.188,0.494v23.939c0,0.203-0.063,0.368-0.188,0.494c-0.127,0.127-0.292,0.189-0.494,0.189H66.131z"/>
	<path fill="#FFFFFF" d="M78.443,101.187c0,0.203-0.063,0.368-0.19,0.494c-0.127,0.127-0.291,0.189-0.494,0.189h-1.368
		c-0.203,0-0.367-0.063-0.492-0.189c-0.129-0.126-0.189-0.291-0.189-0.494V79.982c0-0.202-0.063-0.367-0.189-0.494
		c-0.127-0.126-0.291-0.189-0.492-0.189h-4.104c0.582,0,1.07,0.196,1.464,0.59c0.393,0.393,0.588,0.88,0.588,1.463v19.836
		c0,0.203-0.063,0.368-0.188,0.494c-0.128,0.127-0.292,0.189-0.494,0.189h-1.368c-0.202,0-0.366-0.063-0.493-0.189
		s-0.189-0.291-0.189-0.494V77.247c0-0.203,0.063-0.367,0.189-0.494c0.127-0.126,0.291-0.189,0.493-0.189h5.474
		c0.582,0,1.068,0.196,1.463,0.589c0.393,0.394,0.59,0.882,0.59,1.463v22.573h-0.008V101.187z"/>
	<path fill="#FFFFFF" d="M83.915,101.871c-0.203,0-0.368-0.063-0.494-0.189c-0.127-0.126-0.19-0.291-0.19-0.494V79.982
		c0-0.202-0.063-0.367-0.188-0.494c-0.127-0.126-0.292-0.189-0.494-0.189H81.18c-0.203,0-0.367-0.063-0.494-0.189
		s-0.188-0.291-0.188-0.494v-1.367c0-0.203,0.063-0.367,0.188-0.494c0.127-0.126,0.291-0.189,0.494-0.189h6.84
		c0.203,0,0.367,0.063,0.494,0.189s0.19,0.292,0.19,0.494v1.367c0,0.203-0.063,0.367-0.19,0.494s-0.291,0.189-0.494,0.189h-4.104
		c0.582,0,1.068,0.196,1.463,0.59c0.393,0.393,0.589,0.88,0.589,1.463v19.836c0,0.203-0.063,0.368-0.19,0.494
		c-0.127,0.127-0.291,0.189-0.491,0.189L83.915,101.871L83.915,101.871z"/>
	<path fill="#FFFFFF" d="M92.807,101.871c-0.582,0-1.07-0.196-1.463-0.589c-0.394-0.394-0.589-0.881-0.589-1.464V78.615
		c0-0.583,0.195-1.069,0.589-1.463c0.393-0.392,0.881-0.589,1.463-0.589h5.473c0.203,0,0.367,0.063,0.494,0.189
		s0.189,0.292,0.189,0.494v1.367c0,0.203-0.063,0.367-0.189,0.494c-0.125,0.127-0.291,0.189-0.494,0.189h-6.84
		c0.582,0,1.069,0.196,1.463,0.59c0.394,0.393,0.59,0.88,0.59,1.463v7.523c0,0.203,0.063,0.368,0.189,0.494
		c0.125,0.127,0.291,0.189,0.493,0.189h1.368c0.202,0,0.366,0.063,0.493,0.189s0.19,0.292,0.19,0.494v1.367
		c0,0.203-0.063,0.367-0.19,0.494s-0.291,0.189-0.493,0.189h-4.104c0.582,0,1.068,0.196,1.463,0.59
		c0.393,0.393,0.589,0.88,0.589,1.463v4.104c0,0.202,0.063,0.367,0.19,0.493c0.125,0.127,0.291,0.19,0.492,0.19h4.104
		c0.203,0,0.367,0.063,0.494,0.188s0.189,0.292,0.189,0.494v1.368c0,0.203-0.063,0.368-0.189,0.494
		c-0.127,0.127-0.291,0.189-0.494,0.189h-5.471V101.871z"/>
	<path fill="#FFFFFF" d="M109.223,88.875c0,0.583-0.197,1.07-0.591,1.463c-0.394,0.394-0.88,0.59-1.463,0.59
		c0.583,0,1.069,0.195,1.463,0.589s0.591,0.88,0.591,1.463v8.208c0,0.203-0.063,0.368-0.189,0.494
		c-0.129,0.127-0.291,0.189-0.494,0.189h-1.368c-0.203,0-0.366-0.063-0.491-0.189c-0.13-0.126-0.191-0.291-0.191-0.494V92.98
		c0-0.202-0.063-0.367-0.189-0.494c-0.127-0.126-0.291-0.189-0.492-0.189H101.7c0.582,0,1.069,0.197,1.463,0.589
		c0.394,0.394,0.589,0.881,0.589,1.464v6.84c0,0.203-0.063,0.368-0.189,0.494c-0.127,0.127-0.291,0.189-0.494,0.189h-1.366
		c-0.203,0-0.367-0.063-0.494-0.189s-0.188-0.291-0.188-0.494V77.249c0-0.203,0.063-0.367,0.188-0.494
		c0.127-0.126,0.291-0.189,0.494-0.189h5.472c0.583,0,1.07,0.196,1.465,0.589c0.393,0.394,0.59,0.882,0.59,1.464v10.26h-0.006
		V88.875z M106.484,79.982c0-0.202-0.063-0.367-0.189-0.494c-0.127-0.126-0.291-0.189-0.492-0.189h-4.105
		c0.582,0,1.07,0.196,1.465,0.59c0.395,0.393,0.589,0.88,0.589,1.463v7.523c0,0.203,0.063,0.368,0.188,0.494
		c0.127,0.127,0.291,0.189,0.494,0.189h1.369c0.201,0,0.365-0.063,0.492-0.189c0.127-0.126,0.189-0.291,0.189-0.494V79.982z"/>
	<path fill="#FFFFFF" d="M111.957,101.871c-0.203,0-0.367-0.063-0.494-0.189s-0.189-0.291-0.189-0.494V77.248
		c0-0.203,0.063-0.367,0.189-0.494c0.127-0.126,0.291-0.189,0.494-0.189h1.368c0.202,0,0.366,0.063,0.493,0.189
		s0.188,0.292,0.188,0.494v23.939c0,0.203-0.063,0.368-0.188,0.494c-0.127,0.127-0.291,0.189-0.493,0.189H111.957z"/>
	<path fill="#FFFFFF" d="M122.217,76.563c0.583,0,1.07,0.197,1.463,0.589c0.393,0.394,0.59,0.882,0.59,1.463v21.204
		c0,0.583-0.197,1.07-0.59,1.463c-0.393,0.394-0.88,0.59-1.463,0.59h-4.104c-0.584,0-1.07-0.196-1.463-0.59
		c-0.396-0.393-0.59-0.88-0.59-1.463V78.615c0-0.583,0.194-1.069,0.59-1.463c0.393-0.392,0.879-0.589,1.463-0.589H122.217z
		 M121.533,79.982c0-0.202-0.063-0.367-0.19-0.494c-0.127-0.126-0.29-0.189-0.493-0.189h-4.104c0.582,0,1.07,0.196,1.463,0.59
		c0.393,0.393,0.589,0.88,0.589,1.463v17.101c0,0.202,0.063,0.367,0.19,0.493c0.125,0.127,0.291,0.189,0.494,0.189h1.367
		c0.203,0,0.365-0.063,0.492-0.189c0.129-0.126,0.19-0.291,0.19-0.493L121.533,79.982L121.533,79.982z"/>
	<path fill="#FFFFFF" d="M134.529,88.875c0,0.583-0.197,1.07-0.59,1.463c-0.395,0.394-0.881,0.59-1.463,0.59
		c0.582,0,1.068,0.195,1.463,0.589c0.393,0.394,0.59,0.88,0.59,1.463v8.208c0,0.203-0.063,0.368-0.19,0.494
		c-0.127,0.127-0.291,0.189-0.493,0.189h-1.369c-0.203,0-0.367-0.063-0.492-0.189c-0.129-0.126-0.189-0.291-0.189-0.494V92.98
		c0-0.202-0.063-0.367-0.189-0.494c-0.127-0.126-0.291-0.189-0.492-0.189h-4.104c0.582,0,1.07,0.197,1.464,0.589
		c0.394,0.394,0.588,0.881,0.588,1.464v6.84c0,0.203-0.063,0.368-0.188,0.494c-0.127,0.127-0.292,0.189-0.494,0.189h-1.367
		c-0.203,0-0.367-0.063-0.494-0.189s-0.188-0.291-0.188-0.494V77.249c0-0.203,0.063-0.367,0.188-0.494
		c0.127-0.126,0.291-0.189,0.494-0.189h5.473c0.582,0,1.068,0.196,1.463,0.589c0.393,0.394,0.59,0.882,0.59,1.464v10.26h-0.008
		V88.875z M131.793,79.982c0-0.202-0.063-0.367-0.189-0.494c-0.127-0.126-0.291-0.189-0.494-0.189h-4.104
		c0.582,0,1.07,0.196,1.463,0.59c0.393,0.393,0.59,0.88,0.59,1.463v7.523c0,0.203,0.063,0.368,0.189,0.494
		c0.126,0.127,0.291,0.189,0.494,0.189h1.367c0.203,0,0.367-0.063,0.494-0.189c0.127-0.126,0.188-0.291,0.188-0.494L131.793,79.982
		L131.793,79.982z"/>
</g>
<path fill="#474546" d="M0,0"/>
<path fill="#3A393A" d="M3,0H0c0,0.841,34.007,19.635,67.5,37.94C100.992,19.635,135,0.841,135,0H3z"/>
</svg>
