<?xml version="1.0" encoding="utf-8"?>
<!-- Generator: Adobe Illustrator 16.0.0, SVG Export Plug-In . SVG Version: 6.00 Build 0)  -->
<!DOCTYPE svg PUBLIC "-//W3C//DTD SVG 1.1//EN" "http://www.w3.org/Graphics/SVG/1.1/DTD/svg11.dtd">
<svg version="1.1" id="Layer_1" xmlns="http://www.w3.org/2000/svg" xmlns:xlink="http://www.w3.org/1999/xlink" x="0px" y="0px"
	 width="309.434px" height="353.258px" viewBox="0 0 309.434 353.258" enable-background="new 0 0 309.434 353.258"
	 xml:space="preserve">
<g>
	<g>
		<g>
			<path fill="none" stroke="#BB6428" stroke-width="5" stroke-linecap="round" stroke-linejoin="round" d="M23.046,232.413
				c-0.025,0.043,5.189,2.848,5.125,2.959c-0.085,0.147-15.286,0.031-15.357,0.155c-0.111,0.192,19.027,10.687,18.897,10.91
				c-0.042,0.072-19.693-3.915-19.849-3.645c-0.1,0.173,17.764,10.151,17.719,10.229c-0.046,0.08-12.53,0.946-12.531,0.948
				c-0.289,0.5,17.303,9.358,17.029,9.832c-0.144,0.25-9.594,3.156-9.688,3.319c-0.055,0.095,14.349,7.785,14.132,8.159
				c-0.095,0.164-7.655,4.185-7.722,4.302c-0.693,1.2,84.351,46.889,83.566,48.247c-0.067,0.115-77.314-36.468-77.722-35.761
				c-0.759,1.314,79.046,43.857,78.276,45.192c-0.762,1.319-68.639-31.771-69.167-30.856c-0.504,0.873,69.38,38.383,68.655,39.638
				c-0.546,0.946-56.065-25.219-56.222-24.947c-0.375,0.648,50.978,29.121,50.843,29.354c-0.152,0.263-30.077-10.288-30.42-9.693
				c-0.342,0.593,17.843,9.65,17.562,10.139"/>
			<path fill="none" stroke="#BB6428" stroke-width="5" stroke-linecap="round" stroke-linejoin="round" d="M201.449,247.916
				c-0.409,0.709,54.561,29.494,53.692,30.999c-0.658,1.14-56.142-24.824-56.55-24.117c-0.628,1.089,52.834,28.621,52.019,30.033
				c-0.026,0.046-49.606-22.381-50.21-21.337c-0.3,0.521,37.151,20.236,36.626,21.146"/>
			<path fill="none" stroke="#BB6428" stroke-width="5" stroke-linecap="round" stroke-linejoin="round" d="M265.219,179.223
				c-0.057,0.097,6.406,3.676,6.396,3.692c-0.01,0.016-9.5,2.359-9.585,2.507c-0.007,0.012,7.711,4.241,7.619,4.399
				c-0.173,0.3-12.245,0.007-12.425,0.317c-0.191,0.332,18.827,10.492,18.664,10.775c-0.204,0.354-17.375-3.261-17.591-2.886
				c-0.045,0.077,15.869,8.642,15.644,9.032c-0.256,0.444-20.96-4.663-21.213-4.225c-0.403,0.699,24.941,13.475,24.541,14.169
				c-0.2,0.346-23.097-5.121-23.308-4.756c-0.207,0.358,22.995,13.101,22.919,13.232c-0.317,0.55-30.615-10.051-30.942-9.484
				c-0.03,0.054,31.624,17.786,31.42,18.14c-0.038,0.065-34.8-12.342-34.912-12.147c-0.342,0.592,40.351,22.682,40.084,23.143
				c-0.109,0.19-48.817-19.852-49.033-19.479c-0.497,0.862,45.038,24.304,44.302,25.578c-0.563,0.975-54.634-23.304-54.911-22.823
				c-0.896,1.552,53.234,30.596,53.174,30.7c-0.509,0.88-60.064-28.796-60.932-27.294c-0.323,0.561,57.622,31.095,56.681,32.725
				c-0.223,0.385-64.544-31.053-64.913-30.412c-0.74,1.281,61.955,34.164,61.26,35.368c-0.299,0.518-71.393-34.213-72.01-33.145
				c-0.168,0.291,65.795,37.729,65.684,37.923"/>
			<path fill="none" stroke="#BB6428" stroke-width="5" stroke-linecap="round" stroke-linejoin="round" d="M145.194,198.156
				c-0.415,0.718,34.222,19.41,34.072,19.671c-0.187,0.323-29.022-9.961-29.349-9.395c-0.172,0.298,31.02,16.874,30.571,17.65
				c-0.424,0.734-32.314-11.545-32.408-11.384c-1.454,2.518,108.451,61.606,108.014,62.362
				c-0.923,1.599-105.309-52.54-105.683-51.892c-0.65,1.127,43.555,25.048,43.512,25.122c-0.593,1.026-50.405-22.021-51.121-20.782
				c-0.725,1.255,50.936,29.127,50.815,29.338c-0.406,0.703-50.946-23.126-51.479-22.204c-0.311,0.539,46.07,24.866,45.32,26.165
				c-0.823,1.426-52.164-23.796-52.897-22.525c-0.586,1.016,42.184,23.113,41.646,24.044c-0.191,0.331-43.826-18.772-44.235-18.063
				c-0.708,1.227,41.16,23.375,40.991,23.666c-0.698,1.211-47.187-19.479-47.435-19.051c-0.48,0.831,38.739,21.986,38.574,22.271
				c-0.612,1.061-47.355-20.675-47.828-19.857c-0.683,1.184,37.731,21.441,37.583,21.698"/>
			<path fill="none" stroke="#BB6428" stroke-width="5" stroke-linecap="round" stroke-linejoin="round" d="M225.463,94.228
				c-0.211,0.365,8.599,4.727,8.495,4.905c-0.264,0.457-22.425-6.572-22.721-6.06c-0.377,0.653,33.54,18.986,33.376,19.27
				c-0.501,0.868-42.709-18.142-42.99-17.655c-0.824,1.428,46.713,25.085,45.896,26.498c-0.266,0.46-57.305-25.754-57.884-24.751
				c-0.458,0.793,67.89,37.946,67.349,38.884c-0.902,1.562-82.701-43.692-84.034-41.384c-1.177,2.039,84.987,47.975,84.515,48.794
				c-0.68,1.176-99.112-51.189-100.242-49.232c-0.679,1.177,103,56.248,101.605,58.662c-0.511,0.884-118.855-61.104-118.912-61.006
				c-1.063,1.84,114.151,65.363,113.917,65.77c-0.965,1.67-120.624-67.199-122.572-63.825c-1.082,1.875,123.825,71.01,123.617,71.37
				c-1.528,2.646-131.261-69.872-132.096-68.426c-1.722,2.983,130.539,72.296,129.208,74.599
				c-2.229,3.863-137.729-75.506-139.863-71.809c-1.903,3.296,118.822,66.977,118.118,68.196
				c-1.622,2.81-126.796-67.064-127.646-65.593c-0.849,1.471,110.174,61.681,109.339,63.127
				c-1.521,2.633-117.608-64.644-119.343-61.639c-1.581,2.738,105.087,57.799,103.843,59.954
				c-0.011,0.02-110.724-58.715-112.322-55.947c-0.108,0.187,109.652,59.751,108.112,62.418
				c-1.288,2.231-115.3-59.825-116.221-58.23c-0.498,0.861,107.316,58.536,105.834,61.104
				c-1.129,1.956-110.298-56.547-110.418-56.339c-1.626,2.816,110.818,63.651,110.676,63.898
				c-1.118,1.937-113.472-60.392-114.851-58.004c-1.818,3.15,113.751,65.49,113.671,65.629
				c-0.037,0.064-116.177-59.175-116.404-58.781c-0.765,1.324,114.816,63.732,113.709,65.65
				c-0.918,1.589-121.628-63.613-122.524-62.06c-0.249,0.431,126.42,69.138,124.753,72.026
				c-0.188,0.324-126.518-65.848-126.939-65.118c-0.584,1.011,128.43,70.242,126.739,73.172
				c-1.183,2.049-130.192-68.978-131.025-67.535c-0.547,0.947,70.759,39.122,70.009,40.42c-0.327,0.566-65.881-32.319-66.84-30.658
				c-0.817,1.415,54.395,31.123,54.273,31.335c-0.162,0.279-55.94-24.246-56.231-23.741c-0.694,1.202,39.129,21.264,38.554,22.26
				c-0.589,1.021-44.647-18.127-44.917-17.661c-0.227,0.392,36.358,20.377,36.093,20.838c-0.403,0.698-35.656-14.542-36.149-13.689
				c-0.061,0.105,33.208,19.002,33.134,19.13c-0.483,0.837-31.335-8.902-31.339-8.896c-0.04,0.069,27.599,15.004,27.196,15.701
				c-0.019,0.033-31.856-11.386-31.919-11.277c-0.093,0.161,34.17,19.082,33.89,19.566c-0.245,0.425-32.223-10.543-32.358-10.308
				c-0.334,0.578,36.662,20.276,36.276,20.944c-0.351,0.606-31.275-9.623-31.565-9.121c-0.32,0.555,35.049,19.305,34.646,20.003
				c-0.392,0.68-37.541-14.894-37.625-14.747c-0.103,0.178,40.405,23.317,40.401,23.325c-0.196,0.34-37.777-13.694-37.808-13.641
				c-1.277,2.211,99.416,56.777,99.147,57.242c-0.841,1.457-101.443-51.055-101.996-50.098c-1.642,2.845,95.62,55.069,95.561,55.172
				c-1.547,2.68-95.978-48.056-96.57-47.029c-1.118,1.936,94.111,50.865,92.608,53.467c-1.236,2.142-88.276-43.47-88.611-42.89
				c-1.116,1.933,79.665,43.161,78.438,45.286c-1.053,1.824-80.598-40.616-81.2-39.572c-1.238,2.145,80.97,44.505,79.999,46.188
				c-0.888,1.538-79.062-38.531-79.202-38.289c-1.161,2.011,72.95,41.862,72.839,42.055c-0.613,1.062-66.501-33.374-67.557-31.545
				c-0.894,1.548,64.543,34.609,63.394,36.6c-0.52,0.901-65.51-31.413-66.366-29.931c-0.946,1.639,63.808,35.278,63.132,36.449"/>
		</g>
	</g>
	<g>
		<g>
			<path fill="none" stroke="#3A2511" stroke-width="4" stroke-linecap="round" stroke-linejoin="round" d="M302.663,251.396
				c0.014,0.014,2.188-2.218,2.202-2.203"/>
			<path fill="none" stroke="#3A2511" stroke-width="4" stroke-linecap="round" stroke-linejoin="round" d="M302.201,235.984
				c0.006,0.006,1.592-1.604,1.598-1.598c0.038,0.037-1.5,4.424-1.46,4.465c0.016,0.015,1.614-1.634,1.624-1.624
				c0.039,0.04-1.521,4.505-1.479,4.546c0.019,0.019,0.614-0.651,0.633-0.633c0.03,0.03-2.748,5.491-2.721,5.519
				c0.029,0.029,3.693-3.747,3.72-3.72c0.046,0.045-2.985,6.005-2.952,6.038c0.032,0.032,1.265-1.309,1.287-1.286"/>
			<path fill="none" stroke="#3A2511" stroke-width="4" stroke-linecap="round" stroke-linejoin="round" d="M211.304,28.655
				c0.126,0.126,14.101-14.37,14.235-14.235c0.183,0.183-14.057,16.511-13.961,16.606c0.169,0.169,14.823-15.182,15.002-15.002
				c0.132,0.132-14.259,16.926-14.118,17.066c0.252,0.252,17.243-17.606,17.425-17.425c0.191,0.191-17.968,20.671-17.805,20.833
				c0.205,0.206,19.104-19.613,19.358-19.358"/>
			<path fill="none" stroke="#3A2511" stroke-width="4" stroke-linecap="round" stroke-linejoin="round" d="M71.618,92.774
				c0.824,0.824,84.827-86.604,85.715-85.715c0.455,0.455-83.987,85.794-83.345,86.436c1.131,1.131,87.208-88.082,87.645-87.645
				c0.642,0.641-86.285,87.255-85.316,88.224c0.487,0.488,88.011-89.253,88.632-88.632c0.659,0.659-88.054,88.779-86.958,89.875
				c0.614,0.614,89.415-90.696,90.055-90.056c0.604,0.604-90.72,91.468-89.769,92.42c0.757,0.756,92.615-93.593,93.104-93.104
				c0.698,0.699-90.227,92.063-89.751,92.539c0.724,0.723,90.09-92.171,91.131-91.13c1.192,1.193-88.511,88.87-87.335,90.045
				c1.067,1.067,91.847-93.318,92.583-92.583c0.94,0.94-92.338,94.163-91.867,94.634c0.854,0.854,92.883-94.76,93.821-93.821
				C180.81,5.11,90.225,95.576,90.729,96.08c1.091,1.091,89.877-92.25,91.063-91.063c0.78,0.78-88.313,89.51-87.631,90.191
				c0.602,0.602,90.039-92.257,91.148-91.147c1.261,1.262-88.111,88.457-86.808,89.761c1.246,1.246,89.411-90.542,89.977-89.977
				c1.155,1.156-88.146,89.085-87.202,90.03C102.4,94.999,189.018,4.169,190,5.151c1.198,1.198-85.354,85.927-84.311,86.97
				c1.074,1.074,84.547-86.146,85.346-85.347c1.149,1.149-81.371,82.233-80.252,83.352c0.875,0.875,84.191-85.174,84.682-84.683
				c1.18,1.18-81.936,82.58-80.982,83.534c0.759,0.759,80.481-82.263,81.372-81.372c1.012,1.012-76.211,77.525-75.374,78.363
				c0.619,0.619,77.584-79.813,78.699-78.699c0.798,0.798-77.038,78.537-76.473,79.102c0.936,0.936,77.41-78.324,77.867-77.867
				c0.376,0.375-72.065,73.269-71.335,73.999c0.633,0.633,74.271-76.114,75.192-75.193c0.523,0.523-72.621,73.685-71.676,74.63
				c1.016,1.016,73.463-74.724,74.093-74.093c0.387,0.387-72.598,73.668-71.652,74.614c0.866,0.866,71.828-72.694,72.261-72.261
				c0.443,0.444-69.526,71.231-69.101,71.657c0.486,0.486,71.38-72.305,71.843-71.842c0.76,0.76-70.028,70.745-69.048,71.725
				c0.768,0.768,72.423-73.333,72.878-72.878c0.793,0.793-72.525,73.817-71.852,74.49c0.775,0.775,72.067-74.048,73.057-73.057
				c0.761,0.76-69.643,71.498-69.26,71.88c1.014,1.014,70.133-71.144,70.638-70.639c0.367,0.366-68.38,69.595-67.578,70.397
				c0.888,0.887,70.259-71.339,70.799-70.799c0.938,0.937-70.947,72.582-70.295,73.233c0.547,0.547,70.063-71.572,70.818-70.818
				c0.539,0.539-68.162,70.05-67.709,70.502c1.041,1.041,69.001-70.206,69.604-69.604c0.792,0.792-66.305,67.866-65.542,68.629
				c0.27,0.27,51.482-52.179,51.831-51.831c0.374,0.374-52.377,53.462-51.627,54.212c0.762,0.762,53.493-54.085,53.789-53.789
				c0.72,0.719-50.227,52.653-49.931,52.949c0.631,0.631,48.728-49.429,49.078-49.078c0.433,0.432-47.646,49.321-47.022,49.943
				c0.419,0.419,48.478-49.351,48.914-48.915c0.624,0.624-45.709,47.326-45.026,48.009c0.272,0.272,45.376-45.936,45.655-45.656
				c0.547,0.546-43.367,45.297-42.8,45.865c0.53,0.53,66.557-68.283,67.42-67.42c0.685,0.685-62.346,64.289-61.845,64.79
				c0.768,0.768,60.693-61.626,61.159-61.16c0.45,0.45-58.66,60.668-58.313,61.015c0.882,0.881,62.369-63.293,62.831-62.831
				c0.581,0.581-61.104,62.754-60.4,63.458c0.832,0.832,61.82-62.659,62.239-62.239c0.773,0.773-59.058,61.055-58.61,61.502
				c0.54,0.541,59.546-60.323,59.935-59.935c0.851,0.85-57.815,59.756-57.419,60.153c0.546,0.546,58.978-60.287,59.633-59.633
				c0.76,0.76-54.275,56.35-53.803,56.823c0.831,0.831,53.53-54.323,53.927-53.926c0.761,0.761-52.969,54.524-52.272,55.22
				c0.357,0.357,53.567-54.851,54.209-54.209c0.755,0.755-50.081,51.35-49.361,52.069c0.302,0.302,49.18-50.14,49.659-49.66
				c0.471,0.47-46.511,48.04-45.803,48.748c0.415,0.415,47.896-49.047,48.471-48.472c0.665,0.665-47.386,48.859-46.785,49.46
				c0.396,0.396,45.964-46.509,46.237-46.237c0.29,0.291-42.282,43.871-41.742,44.411c0.613,0.613,44.827-45.677,45.252-45.252
				c0.38,0.379-43.293,45.216-42.8,45.71c0.424,0.423,43.101-44.309,43.705-43.705c0.56,0.56-41.834,43.927-41.381,44.379
				c0.427,0.427,44.753-45.206,44.979-44.979c0.234,0.234-40.144,41.934-39.593,42.484c0.603,0.603,39.821-40.983,40.402-40.402
				c0.33,0.33-37.597,39.497-37.177,39.917c0.361,0.361,40.267-41.168,40.718-40.717c0.475,0.475-39.025,40.911-38.688,41.249
				c0.401,0.401,38.115-38.856,38.485-38.485c0.467,0.466-37.364,39.088-36.824,39.627c0.237,0.237,38.599-39.015,38.807-38.807
				c0.197,0.198-35.127,36.998-34.735,37.389c0.38,0.381,35.063-35.555,35.309-35.309c0.416,0.416-35.183,36.807-34.687,37.303
				c0.212,0.211,34.606-35.063,34.835-34.834c0.363,0.363-32.141,34.189-31.827,34.502c0.458,0.458,32.933-33.651,33.292-33.292
				c0.325,0.326-33.14,35.265-32.829,35.576c0.508,0.508,35.6-36.631,36.115-36.115c0.181,0.18-33.966,36.659-33.762,36.863
				c0.512,0.512,34.947-35.577,35.262-35.262c0.292,0.292-34.05,36.123-33.799,36.374c0.192,0.192,37.298-37.887,37.593-37.592
				c0.201,0.201-35.61,37.787-35.377,38.021c0.329,0.329,35.635-36.65,36.143-36.143c0.356,0.357-33.182,35.675-32.887,35.971
				c0.195,0.195,34.619-35.64,35.13-35.13c0.251,0.252-34.727,37.123-34.459,37.391c0.381,0.38,36.471-37.021,36.746-36.746
				c0.407,0.408-36.737,38.94-36.291,39.387c0.387,0.387,38.04-38.667,38.354-38.354c0.44,0.441-38.093,40.065-37.766,40.393
				c0.336,0.335,34.649-35.388,35.019-35.019c0.178,0.178-33.02,35.302-32.738,35.583c0.323,0.323,32.563-33.029,32.797-32.796
				c0.188,0.188-32.549,34.657-32.066,35.139c0.231,0.231,31.821-32.524,32.173-32.172c0.285,0.286-32.026,34.033-31.564,34.494
				c0.355,0.356,33.341-33.85,33.596-33.596c0.272,0.272-31.794,33.803-31.326,34.271c0.278,0.278,33.626-33.995,33.811-33.811
				c0.453,0.454-34.19,36.271-33.883,36.578c0.219,0.219,34.304-34.749,34.525-34.526c0.407,0.407-35.123,37.494-34.776,37.841
				c0.241,0.241,35.788-36.343,36.065-36.065c0.543,0.543-35.373,37.289-34.882,37.781c0.482,0.482,37.563-38.508,38.035-38.036
				c0.252,0.252-36.445,38.928-36.144,39.229c0.408,0.408,38.173-39.043,38.607-38.608c0.38,0.38-38.717,40.961-38.418,41.259
				c0.453,0.454,37.314-37.761,37.538-37.538c0.246,0.247-36.781,39.264-36.549,39.496c0.513,0.512,37.13-37.934,37.532-37.532
				c0.364,0.365-37.88,40.423-37.632,40.671c0.322,0.322,38.561-39.52,39.04-39.04c0.341,0.341-37.596,39.52-37.199,39.917
				c0.527,0.527,37.9-38.322,38.111-38.111c0.492,0.492-40.014,41.581-39.469,42.126c0.266,0.266,37.133-37.627,37.38-37.38
				c0.405,0.405-36.089,37.868-35.632,38.326c0.272,0.272,35.909-36.661,36.285-36.285c0.23,0.231-35.867,37.937-35.415,38.389
				c0.514,0.514,36.611-37.12,36.865-36.866c0.378,0.378-36.591,38.404-36.105,38.889c0.373,0.374,36.458-37.152,36.805-36.805
				c0.364,0.364-34.831,36.618-34.356,37.093c0.242,0.242,33.267-33.884,33.575-33.575c0.493,0.493-35.261,37.126-34.793,37.595
				c0.499,0.499,36.746-37.174,36.96-36.959c0.354,0.355-35.581,37.922-35.391,38.112c0.39,0.39,34.477-35.361,34.919-34.918
				c0.207,0.207-33.354,35.49-33.021,35.825c0.183,0.182,32.262-32.743,32.502-32.502c0.208,0.208-31.594,34.301-31.425,34.471
				c0.36,0.36,31.906-32.559,32.232-32.233c0.324,0.324-33.331,35.569-33.155,35.745c0.329,0.329,33.221-33.766,33.493-33.493
				c0.353,0.353-33.537,35.574-33.28,35.831c0.283,0.284,33.184-33.801,33.492-33.492c0.313,0.313-33.578,35.496-33.176,35.898
				c0.451,0.451,34.924-35.825,35.374-35.374c0.25,0.249-34.079,36.64-33.868,36.85c0.449,0.45,32.559-33.279,32.919-32.919
				c0.297,0.297-31.184,33.417-30.964,33.637c0.452,0.452,30.226-31.121,30.674-30.674c0.229,0.229-30.82,32.935-30.377,33.378
				c0.187,0.186,31.1-31.958,31.529-31.528c0.41,0.41-31.996,34.517-31.715,34.798c0.465,0.465,33.096-33.696,33.396-33.396
				c0.185,0.185-30.881,32.949-30.585,33.245c0.257,0.257,29.788-30.375,30.081-30.082c0.306,0.305-31.601,34.298-31.418,34.48
				c0.174,0.174,33.207-33.848,33.527-33.527c0.363,0.364-31.312,33.329-31.036,33.604c0.266,0.266,29.283-29.74,29.512-29.512
				c0.424,0.423-30.714,32.638-30.239,33.113c0.452,0.452,31.315-31.853,31.585-31.584c0.317,0.317-31.081,33.113-30.736,33.458
				c0.379,0.379,30.672-31.358,31.016-31.015c0.311,0.31-29.385,31.298-28.955,31.728c0.19,0.19,30.797-31.333,31.064-31.064
				c0.306,0.305-29.818,31.951-29.538,32.231c0.25,0.25,27.616-28.106,27.861-27.861c0.165,0.166-27.89,30.519-27.728,30.68
				c0.162,0.162,28.097-28.485,28.291-28.291c0.355,0.355-28.273,30.508-28.086,30.695c0.365,0.365,24.443-25.098,24.771-24.771
				c0.267,0.268-24.346,26.256-24,26.601c0.247,0.247,24.71-25.061,24.885-24.886c0.31,0.31-24.904,27.055-24.59,27.37
				c0.244,0.244,24.742-25.434,25.088-25.088c0.27,0.27-22.971,25.413-22.664,25.719c0.252,0.252,22.548-23.147,22.847-22.847
				c0.25,0.25-24.144,26.572-23.836,26.879c0.254,0.254,23.722-24.187,23.955-23.955c0.135,0.135-22.684,25.077-22.483,25.278
				c0.116,0.116,21.394-21.993,21.693-21.693c0.271,0.27-20.533,22.751-20.218,23.066c0.204,0.205,18.955-19.248,19.102-19.102
				c0.211,0.211-19.786,21.776-19.479,22.083c0.271,0.271,19.74-20.258,19.999-19.999c0.212,0.211-16.842,19.541-16.681,19.702
				c0.162,0.162,16.857-17.09,16.974-16.973c0.139,0.139-18.291,20.692-18.021,20.962c0.094,0.094,17.054-17.566,17.31-17.31
				c0.097,0.097-15.635,17.954-15.411,18.178c0.116,0.116,16.581-16.916,16.748-16.749c0.27,0.27-17.942,20.481-17.766,20.657
				c0.193,0.193,18.119-18.603,18.361-18.361c0.266,0.266-17.115,19.463-16.889,19.689c0.121,0.121,16.157-16.422,16.289-16.29
				c0.223,0.222-16.506,18.652-16.297,18.862c0.189,0.188,18.256-18.602,18.429-18.429c0.103,0.102-15.662,17.971-15.501,18.132
				c0.129,0.129,13.714-13.922,13.817-13.818c0.089,0.088-15.352,17.675-15.114,17.913c0.154,0.153,15.707-15.885,15.796-15.796
				c0.177,0.177-12.937,15.696-12.775,15.857c0.12,0.119,13.556-13.739,13.647-13.647c0.175,0.175-12.972,15.829-12.892,15.909
				c0.074,0.075,13.113-13.536,13.325-13.325c0.217,0.218-13.695,16.274-13.543,16.427c0.133,0.133,13.112-13.308,13.21-13.21
				c0.14,0.14-11.406,13.749-11.304,13.852c0.072,0.072,13.422-13.686,13.554-13.554c0.108,0.108-14.087,16.551-13.88,16.757
				c0.086,0.086,12.841-13.261,13.051-13.051c0.156,0.156-13.256,15.972-13.169,16.059c0.112,0.112,14.659-14.956,14.808-14.808
				c0.19,0.189-14.152,16.885-13.989,17.048c0.108,0.108,13.903-14.268,14.085-14.085c0.19,0.189-11.702,14.148-11.625,14.226
				c0.109,0.109,11.03-11.231,11.131-11.131c0.195,0.195-11.803,14.133-11.623,14.313c0.065,0.065,10.651-10.957,10.805-10.805
				c0.126,0.127-9.076,11.57-8.934,11.713c0.078,0.078,8.928-9.134,9.031-9.03c0.089,0.089-9.875,12.442-9.729,12.589
				c0.094,0.094,10.615-10.72,10.668-10.668c0.124,0.124-10.039,12.463-9.976,12.526c0.078,0.079,9.259-9.438,9.349-9.349
				c0.094,0.095-9.288,11.995-9.148,12.134c0.086,0.087,7.684-7.824,7.754-7.754c0.054,0.053-7.755,10.253-7.663,10.345
				c0.089,0.09,8.128-8.218,8.173-8.173c0.085,0.085-7.205,9.836-7.15,9.891c0.077,0.077,5.826-5.888,5.857-5.857
				c0.064,0.064-3.8,6.644-3.733,6.71c0.04,0.04,2.212-2.306,2.259-2.259c0.025,0.025-1.603,4.464-1.566,4.5
				c0.029,0.029,3.813-3.865,3.839-3.84c0.054,0.054-3.897,6.483-3.862,6.519c0.011,0.01,3.312-3.352,3.332-3.331
				c0.031,0.031-2.094,4.645-2.07,4.668c0.009,0.009,1.775-1.789,1.782-1.782"/>
			<path fill="none" stroke="#3A2511" stroke-width="4" stroke-linecap="round" stroke-linejoin="round" d="M3.954,116.234
				c0.104,0.104,8.229-8.455,8.342-8.342c0.098,0.098-9.678,12.451-9.579,12.55c0.588,0.588,99.202-101.085,100.144-100.144
				C103.507,20.944,0.965,122.332,2.33,123.696c0.73,0.73,102.487-105.393,103.94-103.94C106.788,20.274,4.354,123.16,5.013,123.819
				c1.403,1.403,104.733-107.127,105.93-105.931C111.575,18.52,3.793,125.44,5.004,126.652
				c0.81,0.81,109.027-110.583,109.805-109.805C115.562,17.6,6.594,126.896,7.209,127.512
				C8.073,128.375,120.303,12.283,121.371,13.35C122.1,14.079,9.242,126.965,9.809,127.532
				c1.038,1.038,111.988-114.715,113.352-113.351c1.362,1.362-112.592,113.253-111.604,114.241
				c1.693,1.693,115.658-117.727,116.692-116.692C129.111,12.592,7.345,134.181,8.085,134.921
				C9.678,136.514,131.939,9.433,132.756,10.25C134.067,11.561,6.092,137.068,7.441,138.416
				C8.286,139.262,133.852,8.493,135.607,10.249C136.994,11.636,3.694,141.874,5.329,143.508
				C6.605,144.784,139.193,5.959,141.035,7.802C141.823,8.59,5.062,144.379,6.186,145.503C7.361,146.678,143.087,6.896,143.939,7.75
				C145.029,8.839,3.233,147.576,5.174,149.516C6.87,151.212,145.84,5.156,147.687,7.003C149.36,8.676,3.631,149.828,5.603,151.799
				C6.82,153.017,149.664,5.495,150.785,6.617C151.61,7.442,4.315,152.242,6.016,153.942C8.119,156.045,151.806,5.342,153.211,6.747
				C155.059,8.595,4.641,154.36,6.484,156.204C8.316,158.036,154.664,5.265,156.043,6.645
				C157.841,8.442,3.111,159.239,4.754,160.883c0.364,0.364,56.138-57.306,56.722-56.722c0.439,0.439-54.602,56.583-54.073,57.112
				c0.407,0.407,51.683-52.789,52.236-52.236c0.661,0.662-54.215,55.729-53.428,56.516c0.358,0.357,51.628-52.616,52.122-52.122
				c0.565,0.565-51.391,53.205-50.817,53.779c0.719,0.72,48.237-49.223,48.73-48.73c0.26,0.26-50.759,52.123-50.092,52.79
				c0.378,0.378,46.877-48.259,47.568-47.568c0.614,0.614-47.288,49.012-46.641,49.659c0.51,0.511,46.663-47.174,46.918-46.919
				c0.452,0.453-46.292,48.084-45.842,48.533c0.483,0.483,42.411-43.049,42.729-42.73c0.629,0.629-41.333,43.205-40.879,43.659
				c0.483,0.483,39.49-40.672,40.081-40.081c0.402,0.402-40.228,42.847-39.992,43.082c0.237,0.236,38.773-39.798,39.286-39.286
				c0.357,0.357-38.65,41.323-38.433,41.541c0.398,0.397,35.894-36.984,36.438-36.439c0.389,0.389-36.409,38.488-36.123,38.774
				c0.565,0.565,36.606-37.182,36.894-36.894c0.429,0.429-38.669,40.42-38.108,40.981c0.503,0.503,35.293-36.009,35.651-35.651
				c0.347,0.347-34.162,36.004-33.704,36.462c0.43,0.43,35.148-35.663,35.405-35.405c0.215,0.214-36.107,37.908-35.692,38.323
				c0.498,0.498,33.956-34.388,34.172-34.172c0.448,0.448-32.931,35.059-32.685,35.305c0.26,0.26,30.761-31.727,31.244-31.244
				c0.313,0.313-31.517,33.565-31.239,33.842c0.367,0.367,30.915-31.5,31.208-31.208c0.466,0.465-30.987,33.348-30.741,33.593
				c0.396,0.396,29.389-29.971,29.68-29.68c0.418,0.417-30.94,33.462-30.741,33.661c0.254,0.254,31.64-32.038,31.838-31.839
				c0.375,0.375-30.268,32.411-29.902,32.776c0.436,0.437,29.011-29.476,29.243-29.243c0.41,0.41-28.648,31.048-28.391,31.305
				c0.253,0.253,28.871-29.738,29.305-29.305c0.425,0.425-29.316,31.114-28.914,31.517c0.402,0.402,26.508-27.162,26.835-26.835
				c0.424,0.424-27.516,29.714-27.142,30.087c0.325,0.325,28.834-29.222,29.028-29.028c0.429,0.43-28.367,30.609-28.161,30.816
				c0.159,0.159,27.355-27.904,27.63-27.63c0.307,0.307-26.91,29.13-26.589,29.45c0.326,0.326,25.056-25.331,25.194-25.193
				c0.212,0.212-25.07,27.39-24.779,27.681c0.286,0.285,25.178-25.711,25.444-25.444c0.166,0.166-24.859,27.378-24.658,27.578
				c0.176,0.176,24.275-24.521,24.397-24.397c0.333,0.332-23.111,25.793-22.916,25.989c0.338,0.337,22.742-23.18,22.961-22.961
				c0.305,0.306-23.118,25.259-22.756,25.62c0.259,0.259,21.671-22.146,21.909-21.908c0.238,0.238-23.189,25.643-22.905,25.928
				c0.163,0.163,22.563-22.889,22.726-22.726c0.132,0.132-20.479,22.712-20.176,23.015c0.263,0.263,18.707-19.144,18.925-18.925
				c0.118,0.118-20.346,22.771-20.062,23.056c0.215,0.214,20.304-20.715,20.509-20.51c0.194,0.194-19.324,21.566-19.14,21.75
				c0.251,0.251,17.211-17.648,17.43-17.43c0.249,0.248-17.031,19.636-16.778,19.89c0.104,0.104,17.592-18.053,17.822-17.823
				c0.098,0.098-15.982,18.471-15.755,18.697c0.105,0.106,15.748-16.002,15.875-15.875c0.187,0.188-17.478,19.898-17.362,20.015
				c0.186,0.186,16.53-16.826,16.678-16.678c0.22,0.22-15.965,18.304-15.771,18.498c0.089,0.089,15.065-15.346,15.205-15.205
				c0.192,0.192-12.387,14.735-12.216,14.906c0.109,0.108,13.069-13.436,13.252-13.252c0.188,0.188-15.07,17.529-14.959,17.641
				c0.097,0.097,12.969-13.127,13.048-13.048c0.066,0.066-10.079,12.568-9.911,12.736c0.156,0.155,9.203-9.404,9.303-9.304
				c0.151,0.15-9.791,12.373-9.72,12.443c0.097,0.098,11.243-11.402,11.323-11.322c0.144,0.144-11.661,14.197-11.576,14.281
				c0.104,0.104,10.274-10.561,10.417-10.417c0.112,0.112-9.829,12.516-9.707,12.638c0.133,0.133,9.292-9.437,9.365-9.364
				c0.133,0.133-7.37,10.131-7.253,10.247c0.092,0.092,7.354-7.601,7.477-7.477c0.063,0.063-7.275,9.688-7.193,9.771
				c0.087,0.087,8.421-8.607,8.515-8.514c0.066,0.066-7.003,9.927-6.933,9.997c0.071,0.071,5.738-5.824,5.781-5.78
				c0.068,0.068-5.668,8.438-5.604,8.502c0.073,0.073,5.108-5.179,5.144-5.144c0.074,0.073-5.042,7.643-4.969,7.717
				c0.072,0.072,6.45-6.521,6.486-6.486c0.05,0.05-4.007,6.692-3.978,6.723c0.042,0.042,3.797-3.862,3.829-3.829
				c0.054,0.053-4.665,7.19-4.626,7.228c0.044,0.044,5.287-5.353,5.32-5.319c0.075,0.075-4.933,7.53-4.863,7.601
				c0.025,0.025,5.538-5.577,5.557-5.558c0.034,0.034-3.87,6.861-3.838,6.894c0.022,0.022,3.541-3.57,3.555-3.556
				c0.055,0.055-3.149,5.682-3.1,5.731c0.024,0.024,1.567-1.624,1.596-1.596c0.013,0.013,0.272,2.74,0.3,2.769
				c0.008,0.009,2.289-2.31,2.299-2.3c0.012,0.013-0.185,2.883-0.167,2.901c0.011,0.011,0.576-0.604,0.59-0.591
				c0.019,0.019-1.874,4.386-1.829,4.432c0.009,0.008,1.4-1.409,1.404-1.405c0.014,0.014,0.885,2.1,0.907,2.122
				c0.004,0.003,0.461-0.464,0.462-0.463"/>
			<path fill="none" stroke="#3A2511" stroke-width="4" stroke-linecap="round" stroke-linejoin="round" d="M55.475,45.802
				c0.176,0.176,13.057-13.44,13.249-13.249c0.134,0.134-9.543,12.171-9.432,12.283c0.141,0.141,14.779-15.222,15-15
				c0.079,0.079-13.484,16.145-13.4,16.228c0.157,0.157,18.225-18.626,18.425-18.425c0.229,0.229-16.925,19.241-16.736,19.43
				c0.195,0.195,18.804-19.022,18.913-18.913c0.102,0.102-18.589,21.105-18.348,21.346c0.152,0.152,24.333-24.746,24.539-24.539"/>
			<path fill="none" stroke="#3A2511" stroke-width="4" stroke-linecap="round" stroke-linejoin="round" d="M35.076,50.39
				c0.183,0.183,12.13-12.529,12.33-12.329c0.128,0.128-21.34,23.553-21.081,23.812c0.289,0.29,25.625-26.026,25.826-25.826
				c0.456,0.456-30.814,33.102-30.564,33.352c0.342,0.342,33.858-34.392,34.125-34.125c0.386,0.385-36.974,38.466-36.429,39.011
				c0.234,0.234,38.202-38.971,38.587-38.587c0.629,0.63-43.024,44.495-42.456,45.063c0.265,0.265,46.333-47.331,46.832-46.832
				c0.272,0.272-49.765,52.155-49.436,52.485c0.394,0.394,54.232-54.86,54.546-54.546c0.707,0.707-55.632,57.668-55.146,58.154
				c0.6,0.6,42.382-43.208,42.795-42.795c0.273,0.274-44.122,46.507-43.844,46.784c0.677,0.677,45.611-46.167,45.89-45.889
				c0.602,0.602-46.883,48.988-46.543,49.328c0.711,0.711,47.392-48.733,48.063-48.063c0.662,0.662-47.902,50.123-47.579,50.446
				c0.326,0.326,50.226-50.876,50.551-50.551c0.688,0.688-51.918,54.136-51.51,54.544c0.563,0.563,51.674-52.588,52.131-52.131
				c0.556,0.556-48.576,50.151-47.913,50.814c0.787,0.788,79.834-80.817,80.326-80.326"/>
		</g>
	</g>
	<path fill-rule="evenodd" clip-rule="evenodd" fill="#6F441A" d="M25.974,222.668c1.313,2.308,4.501,12.414,3.831,13.709
		c-2.818,5.432-5.649-5.557-6.113-6.792c-4.267,0.998-3.264,8.228-3.183,11.228C16.628,232.094,25.863,229.946,25.974,222.668
		C26.47,223.54,25.939,224.93,25.974,222.668z"/>
	<path fill-rule="evenodd" clip-rule="evenodd" fill="#BB6428" d="M56.579,321.461c1.123,0.55,1.148,1.063,0.076,1.538
		C56.63,322.486,56.604,321.974,56.579,321.461C57.067,321.545,56.38,321.985,56.579,321.461z"/>
	<path fill-rule="evenodd" clip-rule="evenodd" fill="#6F441A" d="M7.757,174.187c0.57,0.117,0.977,0.295,0.332,0.873
		C7.813,174.831,7.662,174.556,7.757,174.187z"/>
	<path fill-rule="evenodd" clip-rule="evenodd" fill="#6F441A" d="M14.242,182.92C14.582,183.162,14.388,183.199,14.242,182.92
		C14.322,182.977,14.242,182.92,14.242,182.92z"/>
	<path fill-rule="evenodd" clip-rule="evenodd" fill="#6F441A" d="M13.279,181.45c0.28,0.063,0.416,0.236,0.402,0.523
		C13.404,181.909,13.275,181.73,13.279,181.45z"/>
	<path fill-rule="evenodd" clip-rule="evenodd" fill="#6F441A" d="M8.993,177.596c0.268,0.051,0.406,0.206,0.395,0.483
		C9.098,178.047,8.967,177.886,8.993,177.596z"/>
	<path fill-rule="evenodd" clip-rule="evenodd" fill="#3A2511" d="M215.376,286.319c0.506,0.806,1.013,1.612,1.519,2.418
		c0.974-0.73,2.604-2.427,2.861-3.652c4.551,2.923,1.285,8.241,7.383,3.329c1.135,1.066,2.048,2.297,2.741,3.691
		c5.608-9.457,11.626,15.781,9.737,21.711c-1.068,3.354-12.957,13.677-12.862,5.712c0.106-8.925-3.884-10.228-11.379-14.394
		c-2.16-1.2-12.187-2.405-14.581-1.463c-2.751,1.082-13.575,5.793-15.426,1.475c-0.257-0.602-7.179-4.05-8.047-4.391
		c-2.931-1.153-4.734,3.075-7.563,2.345c-4.051-1.034-7.871,2.662-10.519,5.125c-3.518,3.269,0.224,0.649-4.292,1.185
		c-3.73,0.443-2.489,10.623-10.242,7.102c-5.902-2.681-7.807-1.25-12.2,4.159c-2.777,3.419-4.229,8.91-7.728,11.521
		c-2.593,1.934-5.532-0.316-7.332-2.159c-2.482-2.539-2.276-10.677-1.067-8.006c0.19-2.009-0.931-4.353-0.956-6.425
		c-0.063-5.311,2.382-2.378,3.821-3.12c1.799-5.108,6.3-6.613,8.487-11.798c1.137,1.868,2.496,2.132,4.076,0.791
		c1.207-2.783,2.297-2.771,3.271,0.034c0.675-1.574,2.585-3.937,4.65-3.152c-0.265,0.973-0.164,1.906,0.303,2.801
		c2.059,1.154,5.646-6.856,7.778-7.194c2.39,5.942,4.667-2.51,7.066,1.223c1.767,2.749,4.402,1.52,3.63-1.597
		c-0.362-1.464-2.695-5.561-0.458-6.558c1.775-0.792,9.657-1.876,11.445-0.874c6.992,3.916,10.713-15.893,13.969-18.679
		c2.503-2.141,17.44,0.551,18.836,3.099c-0.4,5.454-11.051,8.245-3.843,13.561c2.565,1.891,2.233,1.439,5.229,0.518
		c4.857-1.494,6.587,3.004,8.645,6.028C212.705,288.56,214.473,286.111,215.376,286.319
		C215.882,287.125,215.278,286.297,215.376,286.319z"/>
	<g>
		<g>
			<path fill="none" stroke="#6F441A" stroke-width="5" stroke-linecap="round" stroke-linejoin="round" d="M144.507,293.573
				c-0.006,0.01,2.042,1.144,2.027,1.17"/>
			<path fill="none" stroke="#6F441A" stroke-width="5" stroke-linecap="round" stroke-linejoin="round" d="M202.113,271.474
				c-0.007,0.013,2.545,1.44,2.532,1.462c-0.082,0.142-5.901,5.533-6.021,5.74c-0.107,0.187,8.593,4.656,8.461,4.885"/>
			<path fill="none" stroke="#6F441A" stroke-width="5" stroke-linecap="round" stroke-linejoin="round" d="M202.706,248.666
				c-0.032,0.056,4.196,2.299,4.143,2.392c-0.113,0.196-3.812,6.502-3.821,6.519c-0.094,0.162,8.777,5.039,8.766,5.061
				c-0.017,0.027-14.967-0.892-15.141-0.59c-0.121,0.21,12.215,7.014,12.198,7.043c-0.204,0.354-20.222-4.626-20.236-4.601
				c-0.01,0.018,7.109,4.061,7.09,4.093c-0.176,0.306-15.079-0.453-15.295-0.08c-0.001,0.003,1.963,1.014,1.911,1.104
				c-0.001,0.002-8.707,3.213-8.781,3.341c-0.05,0.086,6,3.408,5.977,3.45c-0.035,0.061-7.973,4.246-7.981,4.261
				c-0.085,0.147,0.473,0.225,0.452,0.261c-0.368,0.638-23.589-6.427-23.85-5.976c-0.03,0.053,22.216,12.685,22.154,12.791
				c-0.262,0.454-27.086-8.321-27.179-8.16c-0.089,0.154,15.885,9.054,15.834,9.142c-0.119,0.207-11.791,1.823-11.907,2.024
				c-0.154,0.268,13.954,8.006,13.933,8.044c-0.298,0.516-21.052-4.537-21.268-4.162c-0.076,0.131,4.792,2.623,4.729,2.73
				c-0.127,0.221-15.901-1.885-16.131-1.487c-0.008,0.013,10.947,6.268,10.924,6.307c-0.107,0.186-19.21-2.74-19.438-2.348
				c-0.042,0.072,4.274,2.451,4.267,2.464c-0.071,0.122-6.023,5.326-6.064,5.396c-0.047,0.082,2.549,1.472,2.549,1.472
				c-0.059,0.101-4.396,5.136-4.463,5.253c-0.016,0.027,0.929,0.508,0.917,0.529"/>
		</g>
	</g>
	<path fill-rule="evenodd" clip-rule="evenodd" fill="#6F441A" d="M35.447,256.703c3.334,0.342,7.272,33.129,13.479,26.408
		c0.819,1.934,0.917,3.911,0.295,5.932c-4.43-5.217-10.839-5.377-11.351-13.999C37.529,269.281,34.99,262.282,35.447,256.703
		C37.264,256.89,35.381,257.502,35.447,256.703z"/>
	<path fill-rule="evenodd" clip-rule="evenodd" fill="#6F441A" d="M49.109,276.89c-0.899-0.277-4.312-23.372-3.04-24.516
		C47.633,252.627,50.772,275.506,49.109,276.89C48.688,276.76,49.905,276.228,49.109,276.89z"/>
	<path fill-rule="evenodd" clip-rule="evenodd" fill="#6F441A" d="M215.174,286.149c-1.291-1.049-2.786,4.199-2.846,4.534
		c-3.086-4.537-0.595-5.118-1.586-9.059C212.905,282.858,214.748,284.063,215.174,286.149z"/>
	<path fill-rule="evenodd" clip-rule="evenodd" fill="#6F441A" d="M114.607,319.597c1.762-0.127,2.353,0.684,1.771,2.43
		c-0.223-0.492-0.563-0.884-1.02-1.176c0.364,1.288,0.23,2.473-0.401,3.554C113.575,322.894,113.458,321.291,114.607,319.597
		C116.59,319.782,112.962,321.327,114.607,319.597z"/>
	<path fill-rule="evenodd" clip-rule="evenodd" fill="#6F441A" d="M31.031,242.763c0.716,1.085,3.607,3.1,3.262,4.498
		C34.152,247.203,27.95,243.143,31.031,242.763C31.567,243.575,30.318,242.851,31.031,242.763z"/>
	<path fill-rule="evenodd" clip-rule="evenodd" fill="#6F441A" d="M34.354,248.471c0.221,0.6,1.673,5.563,0.481,5.873
		C33.845,253.798,32.813,249.008,34.354,248.471C34.974,250.148,34.06,248.573,34.354,248.471z"/>
	<path fill-rule="evenodd" clip-rule="evenodd" fill="#6F441A" d="M46.023,249.521c-1.13-1.973-1.587-4.09-1.372-6.353
		C46.019,243.784,46.143,248.323,46.023,249.521C44.746,247.581,46.237,247.386,46.023,249.521z"/>
	<path fill-rule="evenodd" clip-rule="evenodd" fill="#6F441A" d="M44.654,242.322c-0.855-0.604-0.808-1.251-0.09-1.93
		C45.242,241.005,45.217,241.651,44.654,242.322z"/>
	<path fill-rule="evenodd" clip-rule="evenodd" fill="#9E7A41" d="M261.275,181.421C263.311,181.615,259.125,181.5,261.275,181.421
		C261.521,181.444,261.036,181.43,261.275,181.421z"/>
	<path fill-rule="evenodd" clip-rule="evenodd" fill="#6F441A" d="M44.082,236.537c-1.132-0.803-1.137-0.877-0.095-1.454
		C44.018,235.567,44.05,236.053,44.082,236.537z"/>
	<path fill-rule="evenodd" clip-rule="evenodd" fill="#6F441A" d="M43.607,229.839c-0.496-0.23-0.535-0.622-0.378-1.083
		C43.793,228.964,44.327,229.184,43.607,229.839z"/>
	<path fill-rule="evenodd" clip-rule="evenodd" fill="#9E7A41" d="M269.523,183.94C270.455,184.349,269.113,184.869,269.523,183.94
		C269.656,183.999,269.465,184.073,269.523,183.94z"/>
	<path fill-rule="evenodd" clip-rule="evenodd" fill="#6F441A" d="M43.859,232.792c-0.628-0.237-0.988-0.527-0.201-1.039
		C44.041,232.038,44.068,232.393,43.859,232.792z"/>
	<path fill-rule="evenodd" clip-rule="evenodd" fill="#6F441A" d="M115.114,326.798c0.278,0.115,0.386,0.321,0.328,0.616
		C115.242,327.257,114.447,327.414,115.114,326.798z"/>
	<g>
		<g>
			<path fill="none" stroke="#3A2511" stroke-width="5" stroke-linecap="round" stroke-linejoin="round" d="M212.942,310.565
				c-0.005,0.008,4.104,2.184,4.024,2.323c-0.043,0.073-15.945-1.32-16.119-1.018c-0.179,0.309,9.02,4.883,8.879,5.126
				c-0.216,0.374-19.832-4.826-20.037-4.472c-0.018,0.031,6.564,3.541,6.457,3.729c-0.197,0.341-15.838-2.2-15.934-2.036
				c-0.068,0.119,7.023,3.892,6.953,4.014c-0.226,0.391-15.107-1-15.24-0.769c-0.008,0.013,1.145,0.609,1.122,0.648"/>
		</g>
	</g>
	<g>
		<g>
			<path fill="none" stroke="#3A2511" stroke-width="5" stroke-linecap="round" stroke-linejoin="round" d="M144.131,319.602
				c-0.005,0.01,5.206,2.95,5.182,2.992c-0.083,0.144-12.327-0.074-12.345-0.044c-0.078,0.135,3.316,1.823,3.276,1.892"/>
		</g>
	</g>
	<path fill-rule="evenodd" clip-rule="evenodd" fill="#BB6428" d="M84.682,352.122c-0.907-0.431-0.974-0.954-0.201-1.569
		C85.444,351.121,85.511,351.645,84.682,352.122C84.183,352.109,85.026,352.099,84.682,352.122z"/>
	<path fill-rule="evenodd" clip-rule="evenodd" fill="#3A2511" d="M229.254,286.763c0.641,0.29,0.686,0.747,0.139,1.372
		C228.752,287.851,228.705,287.393,229.254,286.763C229.569,286.702,228.959,286.831,229.254,286.763z"/>
	<path fill-rule="evenodd" clip-rule="evenodd" fill="#BB6428" d="M215.174,286.149C215.45,286.288,215.294,286.441,215.174,286.149
		C215.174,286.149,215.211,286.24,215.174,286.149z"/>
	<path fill-rule="evenodd" clip-rule="evenodd" fill="#6F441A" d="M302.485,217.192c3.854,0.854,1.403,3.649,2.108,6.346
		c0.682,2.599,3.018,0.399,4.293,2.334c2.383,3.612-3.531,20.815-7.989,21.29c-0.444-2.41,1.207-8.129,1.738-10.273
		C304.319,230.08,301.105,223.526,302.485,217.192C304.694,217.682,302.244,218.3,302.485,217.192z"/>
	<path fill-rule="evenodd" clip-rule="evenodd" fill="#6F441A" d="M134.708,82.431c-0.604,1.101-1.054,1.079-1.35-0.064
		C133.829,81.308,134.278,81.329,134.708,82.431C134.645,82.828,134.734,81.853,134.708,82.431z"/>
	<path fill-rule="evenodd" clip-rule="evenodd" fill="#3A2511" d="M249.006,200.55c0.024,1.19,2.598,1.229,2.174,2.473
		c-0.289,0.847-6.3,1.804-7.273,1.823c-4.687,0.09-6.9,3.707-11.279,3.806c-0.133-0.72-0.01-1.392,0.367-2.02
		c-0.421-0.96-1.867,0.768-2.154-0.539c-0.075-0.342,5.328-10.489-2.969-7.347c-5.783,2.191-2.613,10.965-11.336,11.184
		c-4.398,0.11-10.533-10.07-12.772-8.831c-1.294,0.716-10.702,7.216-10.728,8.537c-0.021,1.075,4.5,1.339,5.351,1.99
		c-0.858,2.307-8.456,1.166-10.316,1.304c-3.294,0.236-0.319-3.168-1.494-4.134c-1.665-1.37-5.062,0.144-6.795,0.797
		c-2.7,1.016-2.034-4.031-3.103-5.18c-4.404-4.753,5.907-10.327,7.522-12.086c1.417-1.544,15.919-7.427,15.763-8.022
		c-0.938-3.596-8.198,2.184-9.093,2.766c-1.673,1.09-2.274-1.059-3.646-1.828c-1.738-0.975-5.833,0.381-6.034,0.196
		c-6.022-5.507,18.566-14.958,20.426-15.295c4.833-0.875,7.265-2.208,10.733,1.139c5.058,4.877-5.082,7.019-6.625,9.723
		c-2.843,4.983-2.091,4.563,3.93,4.72c6.844,0.177,13.359-1.748,20.207-0.196c4.991,1.13,9.869,4.909,14.655,5.485
		c3.826,0.462,4.927,3.076,5.207,6.262c0.144,1.625-2.722,0.195-3.027,1.576C246.312,200.59,248.311,200.309,249.006,200.55z
		 M239.258,196.833c1.564-3.911-10.344-6.863-12.429-7.913c-2.72-1.371-9.574-0.543-12.485-0.667
		c-2.127-0.091-5.588,3.101-6.029,3.02c-5.453-0.995-8.795,8.028-0.178,4.419C219.274,191.027,228.684,198.544,239.258,196.833
		C239.541,196.124,235.546,197.434,239.258,196.833z"/>
	<path fill-rule="evenodd" clip-rule="evenodd" fill="#3A2511" d="M249.02,200.563c-0.002-0.96,0.474-1.4,1.428-1.32
		C252.204,199.549,248.627,200.845,249.02,200.563z"/>
	<path fill-rule="evenodd" clip-rule="evenodd" fill="#3A2511" d="M97.194,215.748c1.701,0.637,19.028-5.378,16.249-7.208
		c-4.204-2.774-11.649-0.928-15.947,0.728c-4.53,1.744-9.345,7.867-13.796,8.397c-4.25-7.404,24.354-12.899,27.519-13.256
		c7.168-0.81,11.223-1.059,18.165,0.557c2.018,0.47,12.153,6.343,11.128,9.311c-0.514,1.486-3.732,0.136-4.059,1.127
		c0.206-0.622,5.359,6.234,3.902,5.591c-1.568-0.693-6.458,3.055-7.608,0.833c-0.812-1.571,2.477-1.413,1.792-2.85
		c-0.822-1.724-9.399-2.679-10.601-2.914c-7.671-1.515-3.057,8.765-11.133,11.911c-6.503,2.535-9.896-4.029-12.277-8.029
		c-3.805-6.375-7.882,7.305-7.901,7.316c0.126-0.074-8.986-0.514-8.615,0.179C83.063,225.678,95.182,217.255,97.194,215.748
		C98.073,216.077,96.731,216.095,97.194,215.748z"/>
	<path fill-rule="evenodd" clip-rule="evenodd" fill="#3A2511" d="M101.732,196.495c3.578-8.445,11.333-6.075,18.928-5.4
		c1.45,0.128,8.406,4.482,4.405,5.081C118.211,197.197,108.492,198.704,101.732,196.495
		C102.478,194.735,102.945,196.892,101.732,196.495z"/>
	<path fill-rule="evenodd" clip-rule="evenodd" fill="#BB6428" d="M97.194,215.748c-2.057,1.541-4.73,2.15-7.287,1.848
		c0.062-7.516,19.302-8.953,19.262-8.153C109.063,211.668,98.573,212.349,97.194,215.748
		C96.731,216.095,97.492,215.013,97.194,215.748z"/>
	<path fill-rule="evenodd" clip-rule="evenodd" fill="#BB6428" d="M103.083,224.553c5.034,7.34-8.756,2.164-7.436-0.912
		C98.548,216.887,100.667,224.104,103.083,224.553C103.55,225.233,101.453,224.25,103.083,224.553z"/>
	<path fill-rule="evenodd" clip-rule="evenodd" fill="#BB6428" d="M265.459,177.963c0.317-1.157,1.111-1.543,2.384-1.159
		C268.779,177.462,266.04,178.472,265.459,177.963C265.377,177.337,265.832,178.29,265.459,177.963z"/>
	<path fill-rule="evenodd" clip-rule="evenodd" fill="#BB6428" d="M251.828,154.784
		C249.041,153.636,254.004,153.627,251.828,154.784C251.421,154.616,251.959,154.715,251.828,154.784z"/>
	<path fill-rule="evenodd" clip-rule="evenodd" fill="#BB6428" d="M270.145,176.086C269.852,176.965,268.254,177.25,270.145,176.086
		C270.073,176.301,270.145,176.086,270.145,176.086z"/>
	<path fill-rule="evenodd" clip-rule="evenodd" fill="#BB6428" d="M280.035,221.334
		C278.074,220.354,282.433,221.035,280.035,221.334C279.783,221.208,280.302,221.301,280.035,221.334z"/>
	<path fill-rule="evenodd" clip-rule="evenodd" fill="#BB6428" d="M270.125,176.065
		C270.445,175.555,270.086,176.121,270.125,176.065C270.165,176.001,270.125,176.065,270.125,176.065z"/>
	<path fill-rule="evenodd" clip-rule="evenodd" fill="#BB6428" d="M144.385,293.049c0.095,2.704-1.128,3.155-2.62,1.547
		C141.478,294.287,143.929,290.256,144.385,293.049C144.406,293.662,144.321,292.657,144.385,293.049z"/>
	<path fill-rule="evenodd" clip-rule="evenodd" fill="#6F441A" d="M239.258,196.833c-8.857,1.433-17.662-3.708-27.117-2.213
		c-3.097,0.489-7.848,4.654-9.486,0.488c-0.846-2.151,4.138-4.114,5.66-3.836c0.729,0.133,2.319-2.88,3.959-3.024
		c4.346-0.385,8.864,1.042,13.193,0.378C227.906,188.252,240.553,193.598,239.258,196.833
		C235.546,197.434,239.541,196.124,239.258,196.833z"/>
	<path fill-rule="evenodd" clip-rule="evenodd" fill="#6F441A" d="M103.083,224.553c-1.63-0.303-1.758-1.782-2.299-2.938
		C102.222,222.068,102.746,223.238,103.083,224.553z"/>
</g>
</svg>
